<svg width="14" height="14" viewBox="0 0 14 14" fill="none" xmlns="http://www.w3.org/2000/svg">
<g clip-path="url(#clip0)">
<path d="M13.9446 8.9621C12.6222 4.70725 9.2929 1.37793 5.03685 0.055118C4.38459 -0.143316 3.71838 0.241684 3.52578 0.869306C3.31728 1.50696 3.65719 2.18462 4.27912 2.39558C4.29435 2.40239 4.30997 2.40799 4.32558 2.41322C7.78547 3.50013 10.5 6.21468 11.587 9.67457C11.5918 9.6898 11.5978 9.70503 11.6042 9.71985C11.8199 10.3575 12.5116 10.6773 13.1221 10.4772C13.7964 10.2736 14.1427 9.54906 13.9446 8.9621Z" fill="#C4C4C4"/>
<path d="M3.45205 4.99684C3.31454 4.93622 3.17061 4.90748 3.02418 4.89966L2.25732 7.12716C2.46027 7.26812 2.70087 7.35335 2.95585 7.35335C3.63427 7.35332 4.18618 6.80142 4.18618 6.12299C4.18615 5.63562 3.89822 5.19347 3.45205 4.99684Z" fill="#C4C4C4"/>
<path d="M5.69962 11.3194C5.49017 10.8969 5.06765 10.6342 4.59627 10.6342C3.91785 10.6342 3.36597 11.1861 3.36597 11.8645C3.36597 12.2033 3.50094 12.5189 3.74563 12.7532C3.7639 12.7707 3.78534 12.783 3.80445 12.7993L5.79461 12.1141C5.8482 11.8394 5.82236 11.5673 5.69962 11.3194Z" fill="#C4C4C4"/>
<path d="M7.87714 8.17358C7.65087 8.17358 7.46704 8.35742 7.46704 8.58369C7.46704 8.80996 7.65085 8.99379 7.87714 8.99379C8.10341 8.99379 8.28724 8.80996 8.28724 8.58369C8.28724 8.35742 8.10341 8.17358 7.87714 8.17358Z" fill="#C4C4C4"/>
<path d="M10.8271 9.98255C9.70416 6.4187 7.32818 4.426 3.94422 3.1445C3.85164 3.11385 3.76075 3.06925 3.67139 3.01965L3.29694 4.10725C3.4621 4.1349 3.62551 4.17695 3.78325 4.24627C4.52618 4.57425 5.00636 5.31079 5.00636 6.123C5.00636 7.25361 4.08644 8.17354 2.95583 8.17354C2.60982 8.17354 2.28205 8.07166 1.98718 7.91175L0.0224738 13.4538C-0.0287958 13.602 0.00926674 13.7662 0.1202 13.8771C0.232884 13.9898 0.398778 14.0253 0.543509 13.9749L2.95982 13.09C2.6944 12.7378 2.54573 12.3153 2.54573 11.8645C2.54573 10.7339 3.46565 9.81395 4.59626 9.81395C5.38163 9.81395 6.08609 10.2513 6.43453 10.9554C6.57119 11.2313 6.61885 11.5284 6.62342 11.8287L10.9822 10.3281C10.9206 10.2189 10.868 10.1036 10.8271 9.98255ZM5.70647 8.87357C5.54629 9.03375 5.28667 9.03375 5.12646 8.87357C4.96631 8.71341 4.96631 8.45376 5.12646 8.29361C5.28664 8.13345 5.54627 8.13345 5.70647 8.29361C5.86663 8.45376 5.86663 8.71344 5.70647 8.87357ZM5.94672 5.59273C5.78654 5.43252 5.78654 5.173 5.94672 5.01282C6.1069 4.85264 6.36644 4.85264 6.52662 5.01282L7.34683 5.83302C7.50701 5.9932 7.50701 6.25275 7.34683 6.41293C7.18662 6.57314 6.92713 6.57314 6.76692 6.41293L5.94672 5.59273ZM7.8771 9.81395C7.19868 9.81395 6.64677 9.26204 6.64677 8.58361C6.64677 7.90519 7.19868 7.35328 7.8771 7.35328C8.55553 7.35328 9.10744 7.90519 9.10744 8.58361C9.10744 9.26204 8.55553 9.81395 7.8771 9.81395Z" fill="#C4C4C4"/>
</g>
<defs>
<clipPath id="clip0">
<rect width="14" height="14" fill="white"/>
</clipPath>
</defs>
</svg>
