<svg width="15" height="15" viewBox="0 0 15 15" fill="none" xmlns="http://www.w3.org/2000/svg">
<g clip-path="url(#clip0)">
<path d="M2.40633 13.8263C1.51289 14.1606 0.977539 14.5844 0.977539 15.0461C0.977539 16.1252 3.8978 17 7.49997 17C11.1021 17 14.0224 16.1252 14.0224 15.0461C14.0224 14.5844 13.4871 14.1606 12.5936 13.8263C12.29 14.1051 11.9631 14.3583 11.617 14.5849C12.1749 14.7356 12.5801 14.9008 12.82 15.0461C12.1723 15.438 10.3259 15.9769 7.5 15.9769C4.67415 15.9769 2.82764 15.4377 2.18002 15.0461C2.41995 14.9011 2.82534 14.7356 3.38297 14.5849C3.03683 14.3583 2.70995 14.1051 2.40633 13.8263Z" fill="#C4C4C4"/>
<path d="M0.217651 8.27502C0.217651 10.4471 1.16968 12.3959 2.67802 13.7301C3.00106 14.016 3.34893 14.2746 3.71929 14.5002C4.82145 15.1709 6.11544 15.5573 7.49998 15.5573C8.88452 15.5573 10.1785 15.1709 11.2807 14.5002C11.651 14.2749 11.9989 14.016 12.3219 13.7301C13.8303 12.3959 14.7823 10.4471 14.7823 8.27502H0.217651Z" fill="#C4C4C4"/>
<path d="M3.91594 2.12402C3.23222 2.63557 2.96929 3.32133 3.30205 4.13472C3.48698 4.58643 4.45692 5.67144 4.04228 6.12469C3.48673 6.73165 4.38885 7.63866 4.94673 7.02914C5.49998 6.42447 5.54655 5.70753 5.20482 4.97803C5.0383 4.62302 4.1262 3.55409 4.56154 3.2285C5.21351 2.7407 4.57712 1.62958 3.91594 2.12402Z" fill="#C4C4C4"/>
<path d="M6.98539 2.12402C6.30168 2.63557 6.03874 3.32133 6.37151 4.13472C6.55644 4.58643 7.52637 5.67144 7.11173 6.12469C6.55619 6.73165 7.45831 7.63866 8.01619 7.02914C8.56944 6.42447 8.61601 5.70753 8.27428 4.97803C8.10776 4.62302 7.19566 3.55409 7.631 3.2285C8.28296 2.7407 7.64658 1.62958 6.98539 2.12402Z" fill="#C4C4C4"/>
<path d="M10.0547 2.12402C9.37102 2.63557 9.10808 3.32133 9.44084 4.13472C9.62577 4.58643 10.5957 5.67144 10.1811 6.12469C9.62552 6.73165 10.5276 7.63866 11.0855 7.02914C11.6388 6.42447 11.6853 5.70753 11.3436 4.97803C11.1771 4.62302 10.265 3.55409 10.7003 3.2285C11.3523 2.7407 10.7159 1.62958 10.0547 2.12402Z" fill="#C4C4C4"/>
</g>
<defs>
<clipPath id="clip0">
<rect width="15" height="15" fill="white"/>
</clipPath>
</defs>
</svg>
