<svg width="14" height="14" viewBox="0 0 14 14" fill="none" xmlns="http://www.w3.org/2000/svg">
<g clip-path="url(#clip0)">
<path d="M12.8336 1.16667V2.46076e-10H9.91689C9.79621 -3.50413e-06 9.6785 0.0374227 9.57998 0.107121C9.48146 0.176819 9.40698 0.275357 9.36681 0.389156L8.47475 2.91667H3.42731C3.3446 2.91667 3.26284 2.93426 3.18744 2.96827C3.11205 3.00229 3.04475 3.05194 2.99002 3.11395C2.93528 3.17595 2.89435 3.24889 2.86995 3.32792C2.84555 3.40695 2.83824 3.49026 2.8485 3.57233L4.08808 13.489C4.10571 13.6301 4.17426 13.7599 4.28084 13.854C4.38743 13.9481 4.52471 14 4.66689 14H9.26064C9.40282 14 9.5401 13.9481 9.64669 13.854C9.75327 13.7599 9.82182 13.6301 9.83945 13.489L11.079 3.57233C11.0893 3.49026 11.082 3.40695 11.0576 3.32792C11.0332 3.24889 10.9923 3.17595 10.9375 3.11395C10.8828 3.05194 10.8155 3.00229 10.7401 2.96827C10.6647 2.93426 10.5829 2.91667 10.5002 2.91667H9.712L10.3296 1.16667H12.8336ZM9.6207 5.83333L8.7457 12.8333H5.1819L4.3069 5.83333H7.44502L5.86681 10.3058L6.96698 10.6942L8.68256 5.83333H9.6207Z" fill="#C4C4C4"/>
<path d="M7 10C8.65685 10 10 8.65685 10 7C10 5.34315 8.65685 4 7 4C5.34315 4 4 5.34315 4 7C4 8.65685 5.34315 10 7 10Z" fill="#C4C4C4"/>
<path d="M7 14C8.65685 14 10 12.8807 10 11.5C10 10.1193 8.65685 9 7 9C5.34315 9 4 10.1193 4 11.5C4 12.8807 5.34315 14 7 14Z" fill="#C4C4C4"/>
<path d="M7 11C8.65685 11 10 9.88071 10 8.5C10 7.11929 8.65685 6 7 6C5.34315 6 4 7.11929 4 8.5C4 9.88071 5.34315 11 7 11Z" fill="#C4C4C4"/>
</g>
<defs>
<clipPath id="clip0">
<rect width="14" height="14" fill="white"/>
</clipPath>
</defs>
</svg>
