<svg width="14" height="15" viewBox="0 0 14 15" fill="none" xmlns="http://www.w3.org/2000/svg">
<path fill-rule="evenodd" clip-rule="evenodd" d="M11.4399 0.686724C10.6032 0.47876 9.71426 0.493251 8.87619 0.506914C8.67198 0.510243 8.47079 0.513523 8.27411 0.513523H8.25C8.11193 0.513523 8 0.625451 8 0.763523C8 0.901594 8.11193 1.01352 8.25 1.01352H8.27411C8.48951 1.01352 8.70336 1.01019 8.91549 1.00688L8.91549 1.00688C9.74276 0.993978 10.5436 0.981489 11.3067 1.16885L11.3079 1.16939C11.3175 1.17388 11.3322 1.18124 11.3524 1.19203C11.3925 1.21345 11.4471 1.24442 11.5132 1.28367C11.645 1.36194 11.8166 1.46943 11.9998 1.59103C12.6873 2.04739 13.0398 2.83041 13.1017 3.69971L13.113 3.85826C13.1355 4.17405 12.862 4.43068 12.5483 4.38814C12.0639 4.32246 11.5986 4.15587 11.1826 3.89913L10.4716 3.4604C9.94013 3.13242 9.48742 2.69137 9.14566 2.16863C9.05861 2.03547 9.15415 1.85886 9.31324 1.85886H9.82007L10.4172 1.92407C10.882 1.97483 11.3157 2.18273 11.6463 2.51339L11.8273 2.69438C11.8981 2.76515 11.9156 2.87326 11.8709 2.96278C11.7683 3.1679 11.5005 3.22238 11.3259 3.07362L10.6915 2.53291C10.5864 2.44335 10.4286 2.45593 10.3391 2.56101C10.2495 2.6661 10.2621 2.82389 10.3672 2.91345L11.0016 3.45416C11.4233 3.81354 12.0703 3.68194 12.3181 3.18639C12.4591 2.90438 12.4038 2.56378 12.1809 2.34083L11.9999 2.15984C11.5887 1.74867 11.0495 1.49014 10.4715 1.42702L9.86082 1.36034L9.84729 1.35886H9.83368H9.31324C8.75683 1.35886 8.42269 1.97652 8.72716 2.44223C9.10911 3.02645 9.61505 3.51935 10.209 3.8859L10.92 4.32463C11.3955 4.6181 11.9274 4.80853 12.4812 4.88361C13.1092 4.96877 13.6568 4.45496 13.6118 3.82272L13.6005 3.66417C13.531 2.6894 13.1291 1.74051 12.2763 1.17445C12.087 1.04879 11.9083 0.936771 11.7684 0.853747C11.6987 0.812351 11.6371 0.777226 11.5878 0.750922C11.5633 0.737847 11.54 0.725937 11.5191 0.716224C11.5033 0.70886 11.4727 0.694884 11.4399 0.686724Z" fill="#C4C4C4"/>
<path fill-rule="evenodd" clip-rule="evenodd" d="M0 10.9377L7.13184 1C7.58419 2.168 8.34474 3.23431 9.39816 4.0676C10.4457 4.89621 11.6508 5.38996 12.8843 5.56392L4.40206 14.6688C3.55546 14.412 2.74184 13.9951 2.00598 13.413C1.13353 12.7229 0.461971 11.8729 0 10.9377ZM7.0565 4.01545L6.75951 3.97301L6.57995 5.2294L5.00002 5.45313L5.04208 5.75016L6.53575 5.53865L6.44109 6.20096L5.83417 6.2869L5.86138 6.00148L5.56274 5.97301L5.52868 6.33016L4.00002 6.54663L4.04208 6.84367L5.4994 6.6373L5.43203 7.34385L5.0427 7.39898L5.09708 7.01508L4.80004 6.97301L4.7335 7.44277L4.00002 7.54663L4.04208 7.84367L4.6897 7.75196L4.58895 8.46323L4.00002 8.54663L4.04208 8.84367L4.54516 8.77243L4.47151 9.29236L3.63806 9.41038L3.68 9.00379L3.38158 8.97301L3.33199 9.45372L3.00002 9.50073L3.04208 9.79777L3.30027 9.76121L3.24862 10.262L2.44315 10.3554L2.47001 9.99519L2.17085 9.97287L2.13969 10.3905L2.00035 10.4067L2.0349 10.7047L2.11697 10.6952L2.0739 11.2725L2.00031 11.2785L2.02465 11.5775L2.05132 11.5753L1.99992 12.2643L2.29909 12.2867L2.35399 11.5507L3.12212 11.4882L3.00003 12.6717L3.29845 12.7025L3.42627 11.4634L4.1726 11.4027L4.00022 12.6196L4.29726 12.6617L4.47912 11.3777L5.05186 11.3311L5.00017 11.8733L5.29881 11.9017L5.35558 11.3064L5.77825 11.272L5.75391 10.9729L5.3845 11.003L5.45071 10.3086L5.77585 10.2709L5.7413 9.97293L5.47983 10.0032L5.53305 9.44503L6.77089 9.26974L6.72883 8.97271L6.34014 9.02775L6.41446 8.50772L7.03619 8.41968L6.99988 8.8005L7.29852 8.82897L7.34167 8.37642L8.09458 8.2698L8.05252 7.97277L7.37096 8.06928L7.43832 7.36274L8.09458 7.2698L8.05252 6.97277L7.46761 7.0556L7.53497 6.34905L8.09458 6.2698L8.05252 5.97277L7.56426 6.04191L7.62698 5.38412L8.43378 5.26987L8.39171 4.97284L7.65626 5.07698L7.66348 5.00129L7.36483 4.97282L7.35078 5.12024L6.88926 5.1856L7.0565 4.01545ZM6.84506 5.49485L6.7504 6.15716L7.25877 6.08517L7.32149 5.42738L6.84506 5.49485ZM5.80488 6.59404L6.39689 6.51021L6.29522 7.22161L5.73752 7.30059L5.80488 6.59404ZM6.7062 6.46641L7.22949 6.39231L7.16212 7.09885L6.60453 7.17781L6.7062 6.46641ZM6.25102 7.53087L5.70823 7.60773L5.64086 8.31428L6.14935 8.24227L6.25102 7.53087ZM5.40275 7.65099L4.9989 7.70818L4.89815 8.41945L5.33538 8.35753L5.40275 7.65099ZM6.56033 7.48707L7.13284 7.40599L7.06547 8.11254L6.45866 8.19847L6.56033 7.48707ZM5.61158 8.62142L6.10515 8.55152L6.03083 9.07155L5.56234 9.13789L5.61158 8.62142ZM4.85436 8.72864L5.3061 8.66467L5.25685 9.18115L4.78071 9.24857L4.85436 8.72864ZM5.22757 9.48829L4.73691 9.55777L4.66035 10.0983L5.1751 10.0386L5.22757 9.48829ZM4.42772 9.60155L3.60634 9.71787L3.55386 10.2266L4.3523 10.134L4.42772 9.60155ZM3.15344 11.1846L2.37658 11.2479L2.42043 10.66L3.21708 10.5676L3.15344 11.1846ZM4.21573 11.0982L3.45758 11.1599L3.52233 10.5322L4.30881 10.441L4.21573 11.0982ZM5.08079 11.0277L4.52226 11.0732L4.61686 10.4053L5.14598 10.344L5.08079 11.0277Z" fill="#C4C4C4"/>
</svg>
