<svg width="12" height="12" viewBox="0 0 12 12" fill="none" xmlns="http://www.w3.org/2000/svg">
<path d="M11.2031 1.70371L7.73047 11.0837C7.51113 11.6764 6.87938 11.9809 6.31997 11.7633C6.18144 11.7084 6.05576 11.6255 5.95085 11.5196C5.84594 11.4138 5.76407 11.2875 5.71038 11.1485L4.60963 8.36596C4.40278 7.83183 3.99271 7.40142 3.46922 7.16896L0.819716 6.01337C0.268466 5.77246 0.0176324 5.10454 0.258549 4.52121C0.315534 4.38035 0.399885 4.2522 0.506722 4.14416C0.613559 4.03612 0.74076 3.95035 0.880966 3.89179L9.8153 0.245956C10.3794 0.0155391 11.0053 0.304872 11.2124 0.892873C11.304 1.15304 11.3005 1.44121 11.2036 1.70371H11.2031Z" fill="#909090"/>
</svg>
