<svg width="13" height="13" viewBox="0 0 13 13" fill="none" xmlns="http://www.w3.org/2000/svg">
<path d="M6.5 0C2.9101 0 0 2.9102 0 6.5C0 10.09 2.9101 13 6.5 13C10.0899 13 13 10.09 13 6.5C13 2.9102 10.0899 0 6.5 0ZM6.5 3.25C6.94875 3.25 7.3125 3.6138 7.3125 4.0625C7.3125 4.51141 6.94875 4.875 6.5 4.875C6.05125 4.875 5.6875 4.51141 5.6875 4.0625C5.6875 3.6138 6.05125 3.25 6.5 3.25ZM7.71875 9.75H5.28125C5.0569 9.75 4.875 9.56831 4.875 9.34375C4.875 9.1194 5.0569 8.9375 5.28125 8.9375H5.6875V6.5H5.28125C5.0569 6.5 4.875 6.3183 4.875 6.09375C4.875 5.8694 5.0569 5.6875 5.28125 5.6875H6.90625C7.1306 5.6875 7.3125 5.8694 7.3125 6.09375V8.9375H7.71875C7.9431 8.9375 8.125 9.1194 8.125 9.34375C8.125 9.56831 7.9431 9.75 7.71875 9.75Z" fill="#828282"/>
</svg>
