<svg width="13" height="13" viewBox="0 0 13 13" fill="none" xmlns="http://www.w3.org/2000/svg">
<path d="M1.625 0C1.19402 0 0.780698 0.171205 0.475951 0.475951C0.171205 0.780698 0 1.19402 0 1.625L0 12.0193C1.70746e-05 12.0997 0.0238815 12.1783 0.0685728 12.2451C0.113264 12.3119 0.176773 12.364 0.251062 12.3947C0.325351 12.4254 0.40708 12.4334 0.485904 12.4176C0.564729 12.4018 0.637106 12.363 0.693875 12.3061L3.01194 9.98806C3.16428 9.83568 3.3709 9.75005 3.58637 9.75H11.375C11.806 9.75 12.2193 9.57879 12.524 9.27405C12.8288 8.9693 13 8.55598 13 8.125V1.625C13 1.19402 12.8288 0.780698 12.524 0.475951C12.2193 0.171205 11.806 0 11.375 0L1.625 0Z" fill="#828282"/>
</svg>
