<svg width="13" height="13" viewBox="0 0 13 13" fill="none" xmlns="http://www.w3.org/2000/svg">
<g clip-path="url(#clip0)">
<path d="M12.7445 0.0489462C12.6136 -0.0166409 12.4595 -0.0166409 12.3286 0.0489462L0.257562 6.08446C0.0282656 6.19923 -0.0645793 6.47812 0.0501643 6.70742C0.115479 6.83794 0.238384 6.93016 0.381963 6.95636L5.17276 7.82779L6.0442 12.6186C6.07986 12.815 6.23709 12.9666 6.43464 12.9951C6.45649 12.9983 6.47852 12.9998 6.50056 12.9998C6.67654 12.9998 6.83742 12.9004 6.91609 12.743L12.9516 0.671984C13.0665 0.442741 12.9737 0.163799 12.7445 0.0489462ZM6.70812 11.0818L6.02842 7.34539C5.99327 7.15671 5.84567 7.0091 5.65701 6.97398L1.91873 6.29243L11.498 1.50258L6.70812 11.0818Z" fill="#909090"/>
</g>
<defs>
<clipPath id="clip0">
<rect width="13" height="13" fill="white"/>
</clipPath>
</defs>
</svg>
