<svg width="15" height="15" viewBox="0 0 15 15" fill="none" xmlns="http://www.w3.org/2000/svg">
<path d="M14.467 9.06456C14.0475 8.64506 13.4473 8.45648 12.8613 8.5601L12.4742 8.62854L12.3632 8.25152C11.7329 6.11152 9.73307 4.61694 7.5 4.61694C5.26693 4.61694 3.26713 6.11152 2.63681 8.25152L2.52574 8.62854L2.1387 8.5601C1.55279 8.45639 0.9525 8.64503 0.532998 9.06456C0.189287 9.40827 0 9.86528 0 10.3514C0 10.8375 0.189287 11.2945 0.532998 11.6382C0.876709 11.9819 1.33374 12.1712 1.8198 12.1712C2.3059 12.1712 2.7629 11.9819 3.10664 11.6382C3.19556 11.5493 3.2756 11.4508 3.34447 11.3454L3.71229 10.7828L4.08012 11.3454C4.14899 11.4507 4.22903 11.5493 4.31795 11.6382C4.66166 11.9819 5.11869 12.1712 5.60476 12.1712C6.09085 12.1712 6.54785 11.9819 6.89159 11.6382C6.98051 11.5493 7.06055 11.4508 7.12942 11.3454L7.49722 10.7828L7.86507 11.3454C7.93397 11.4507 8.01401 11.5493 8.10293 11.6382C8.44661 11.9819 8.90364 12.1712 9.38974 12.1712C9.87583 12.1712 10.3328 11.9819 10.6766 11.6382C10.7663 11.5484 10.847 11.4487 10.9166 11.3418L11.285 10.7754L11.6533 11.3418C11.7229 11.4488 11.8037 11.5485 11.8933 11.6381C12.237 11.9819 12.694 12.1712 13.1801 12.1712C13.6662 12.1712 14.1232 11.9819 14.467 11.6382C14.8107 11.2944 15 10.8375 15 10.3514C15 9.86528 14.8107 9.40827 14.467 9.06456ZM6.37805 9.08199H5.49914V8.24214H6.37805V9.08199ZM7.93945 7.66271H7.06055V6.82285H7.93945V7.66271ZM9.50086 9.08199H8.62195V8.24214H9.50086V9.08199Z" fill="#C4C4C4"/>
<path d="M11.285 12.2727C10.237 13.3067 8.54636 13.3076 7.49727 12.2754C6.44903 13.3067 4.76053 13.3067 3.71232 12.2754C2.97328 13.0025 1.91616 13.2162 0.98938 12.9181L1.29155 13.9477C1.47339 14.5673 2.05136 15 2.69709 15H12.3029C12.9487 15 13.5267 14.5673 13.7085 13.9477L14.0101 12.92C13.7454 13.0053 13.4663 13.0502 13.1802 13.0502C12.4655 13.0502 11.7932 12.7742 11.285 12.2727Z" fill="#C4C4C4"/>
<path d="M4.20471 3.85716H5.08362C5.08362 3.62697 5.16225 3.53223 5.30499 3.36025C5.4839 3.14469 5.72894 2.8494 5.72894 2.30202C5.72894 1.75461 5.4839 1.45936 5.30499 1.24379C5.16225 1.07179 5.08362 0.977041 5.08362 0.746826H4.20471C4.20471 1.29424 4.44975 1.58949 4.62867 1.80506C4.7714 1.97706 4.85003 2.07181 4.85003 2.30202C4.85003 2.53221 4.7714 2.62695 4.62867 2.79893C4.44975 3.01452 4.20471 3.30978 4.20471 3.85716Z" fill="#C4C4C4"/>
<path d="M6.73792 3.11033H7.61682C7.61682 2.88015 7.69548 2.7854 7.83822 2.61343C8.01711 2.39786 8.26217 2.10258 8.26217 1.5552C8.26217 1.00778 8.01716 0.712529 7.83822 0.496963C7.69548 0.324961 7.61682 0.230215 7.61682 0H6.73792C6.73792 0.547412 6.98295 0.842666 7.16187 1.05823C7.3046 1.23023 7.38324 1.32498 7.38324 1.5552C7.38324 1.78538 7.3046 1.88013 7.16187 2.0521C6.98295 2.2677 6.73792 2.56295 6.73792 3.11033Z" fill="#C4C4C4"/>
<path d="M9.271 3.85716H10.1499C10.1499 3.62697 10.2285 3.53223 10.3713 3.36025C10.5502 3.14466 10.7952 2.8494 10.7952 2.30202C10.7952 1.75461 10.5502 1.45938 10.3713 1.24379C10.2285 1.07179 10.1499 0.977041 10.1499 0.746826H9.271C9.271 1.29424 9.51601 1.58949 9.69492 1.80506C9.83769 1.97706 9.91632 2.07181 9.91632 2.30202C9.91632 2.53221 9.83769 2.62695 9.69495 2.79896C9.51601 3.01452 9.271 3.30978 9.271 3.85716Z" fill="#C4C4C4"/>
</svg>
