<svg width="17" height="17" viewBox="0 0 17 17" fill="none" xmlns="http://www.w3.org/2000/svg">
<path d="M10.0575 8.51521L16.6769 1.89555C17.1077 1.46497 17.1077 0.768776 16.6769 0.338195C16.2464 -0.0923865 15.5502 -0.0923865 15.1196 0.338195L8.49991 6.95785L1.88044 0.338195C1.44966 -0.0923865 0.75367 -0.0923865 0.323088 0.338195C-0.107696 0.768776 -0.107696 1.46497 0.323088 1.89555L6.94256 8.51521L0.323088 15.1349C-0.107696 15.5654 -0.107696 16.2616 0.323088 16.6922C0.537673 16.907 0.81982 17.0149 1.10177 17.0149C1.38371 17.0149 1.66566 16.907 1.88044 16.6922L8.49991 10.0726L15.1196 16.6922C15.3344 16.907 15.6163 17.0149 15.8983 17.0149C16.1802 17.0149 16.4622 16.907 16.6769 16.6922C17.1077 16.2616 17.1077 15.5654 16.6769 15.1349L10.0575 8.51521Z" fill="white"/>
</svg>
