<svg width="18" height="17" viewBox="0 0 18 17" fill="none" xmlns="http://www.w3.org/2000/svg">
<path d="M17.4375 14.5202L0.562491 14.5202C0.251978 14.5202 3.95559e-06 14.9854 3.90548e-06 15.5586C3.85536e-06 16.1319 0.252024 16.597 0.56249 16.597L17.4375 16.597C17.748 16.597 18 16.1318 18 15.5586C18 14.9854 17.748 14.5202 17.4375 14.5202Z" fill="white"/>
<path d="M0.56249 2.0769L17.4375 2.0769C17.748 2.0769 18 1.61164 18 1.03847C18 0.465299 17.748 3.14492e-05 17.4375 3.14221e-05L0.562491 2.99468e-05C0.251978 2.99197e-05 3.95559e-06 0.465298 3.90548e-06 1.03847C3.85537e-06 1.61163 0.251978 2.0769 0.56249 2.0769Z" fill="white"/>
<path d="M0.562498 9.30957L11.8125 9.30957C12.123 9.30957 12.375 8.8443 12.375 8.27113C12.375 7.69788 12.123 7.2327 11.8125 7.2327L0.562498 7.2327C0.251985 7.2327 1.1585e-05 7.69796 1.15349e-05 8.27113C-3.52453e-05 8.84439 0.251985 9.30957 0.562498 9.30957Z" fill="white"/>
</svg>
