<svg width="13" height="13" viewBox="0 0 13 13" fill="none" xmlns="http://www.w3.org/2000/svg">
<g clip-path="url(#clip0)">
<path d="M2.74421 7.042C2.7503 7.042 2.75641 7.04193 2.7625 7.04176C3.15139 7.04162 3.46657 6.72626 3.46644 6.33737C3.4663 5.94847 3.15094 5.63328 2.76205 5.63342C2.37315 5.63356 2.058 5.94892 2.05811 6.33781C2.05811 6.34376 2.05817 6.3497 2.05835 6.35565C2.05821 6.73459 2.3653 7.04186 2.74421 7.042Z" fill="#909090"/>
<path d="M10.2191 10.2373C10.2252 10.2375 10.2313 10.2376 10.2374 10.2376C10.6361 10.2476 10.9674 9.93237 10.9774 9.53362C10.9874 9.13488 10.6722 8.80355 10.2735 8.79357C9.87475 8.78358 9.54342 9.09876 9.53344 9.49751C9.5333 9.50345 9.53319 9.5094 9.53319 9.51534C9.52324 9.9041 9.83034 10.2273 10.2191 10.2373Z" fill="#909090"/>
<path d="M6.50008 10.2376C6.88899 10.2376 7.20427 9.92232 7.20427 9.53341C7.20427 9.1445 6.88899 8.82922 6.50008 8.82922C6.11117 8.82922 5.7959 9.1445 5.7959 9.53341C5.7959 9.92232 6.11117 10.2376 6.50008 10.2376Z" fill="#909090"/>
<path d="M10.2193 7.042C10.2254 7.042 10.2315 7.04193 10.2376 7.04176C10.6265 7.04162 10.9416 6.72626 10.9415 6.33737C10.9414 5.94847 10.626 5.63332 10.2371 5.63342C9.84825 5.63356 9.5331 5.94892 9.5332 6.33781C9.5332 6.34376 9.53327 6.3497 9.53344 6.35565C9.53331 6.73459 9.8404 7.04186 10.2193 7.042Z" fill="#909090"/>
<path d="M0 11.5917C0 12.0792 0.361112 12.5486 0.866683 12.5486H12.1334C12.6389 12.5486 13 12.0792 13 11.5917V3.52087H0V11.5917ZM10.2375 4.92921C11.0253 4.92921 11.6639 5.56783 11.6639 6.35558C11.6639 7.14336 11.0253 7.78196 10.2375 7.78196C9.44974 7.78196 8.81115 7.14333 8.81115 6.35558C8.81112 5.5678 9.44974 4.92921 10.2375 4.92921ZM8.81112 9.51532C8.81112 8.72754 9.44974 8.08895 10.2375 8.08895C11.0352 8.07903 11.6899 8.71765 11.6998 9.51532C11.7097 10.313 11.0711 10.9677 10.2734 10.9776C9.47573 10.9875 8.82103 10.3489 8.81112 9.55123C8.81098 9.53924 8.81098 9.52728 8.81112 9.51532ZM6.50002 4.92921C7.2878 4.92921 7.92639 5.56783 7.92639 6.35558C7.92639 7.14336 7.28777 7.78196 6.50002 7.78196C5.71227 7.78196 5.07364 7.14333 5.07364 6.35558C5.07361 5.5678 5.71223 4.92921 6.50002 4.92921ZM5.07361 9.51532C5.07361 8.72754 5.71223 8.08895 6.49998 8.08895C7.29765 8.07903 7.95235 8.71765 7.96227 9.51532C7.97218 10.313 7.33356 10.9677 6.53589 10.9776C5.73822 10.9875 5.08353 10.3489 5.07361 9.55123C5.07347 9.53924 5.07347 9.52728 5.07361 9.51532ZM2.72616 4.92921C2.73829 4.92903 2.75038 4.92903 2.76251 4.92921C3.5503 4.92921 4.18889 5.56783 4.18889 6.35558C4.18889 7.14336 3.55026 7.78196 2.76251 7.78196C1.97473 7.78196 1.33614 7.14333 1.33614 6.35558C1.32608 5.57785 1.94843 4.93923 2.72616 4.92921ZM1.3361 9.51532C1.3361 8.72754 1.97473 8.08895 2.76248 8.08895C3.55026 8.08895 4.18885 8.72757 4.18885 9.51532C4.18909 10.3031 3.55068 10.9419 2.76289 10.9421C1.97511 10.9424 1.33631 10.304 1.33607 9.51618C1.3361 9.51591 1.3361 9.5156 1.3361 9.51532Z" fill="#909090"/>
<path d="M12.1334 0.451416H10.2917V1.26391C10.2917 1.46335 10.13 1.62502 9.93056 1.62502C9.73112 1.62502 9.56945 1.46335 9.56945 1.26391V0.451416H3.43055V1.26391C3.43055 1.46335 3.26888 1.62502 3.06944 1.62502C2.86999 1.62502 2.70832 1.46335 2.70832 1.26391V0.451416H0.866648C0.361112 0.451416 0 0.722259 0 1.20975V2.79866H13V1.20975C13 0.722259 12.6389 0.451416 12.1334 0.451416Z" fill="#909090"/>
<path d="M6.48176 7.042C6.48788 7.042 6.49396 7.04193 6.50005 7.04176C6.88894 7.04162 7.20409 6.72626 7.20399 6.33737C7.20385 5.94847 6.8885 5.63332 6.4996 5.63342C6.1107 5.63356 5.79555 5.94892 5.79565 6.33781C5.79565 6.34376 5.79572 6.3497 5.7959 6.35565C5.79576 6.73459 6.10285 7.04186 6.48176 7.042Z" fill="#909090"/>
<path d="M2.74424 10.2373C2.75032 10.2375 2.75644 10.2376 2.76252 10.2376C3.16127 10.2476 3.49259 9.93237 3.50258 9.53362C3.51257 9.13488 3.19739 8.80355 2.79864 8.79357C2.39989 8.78358 2.06857 9.09876 2.05858 9.49751C2.05844 9.50345 2.05838 9.5094 2.05834 9.51534C2.04839 9.9041 2.35545 10.2273 2.74424 10.2373Z" fill="#909090"/>
</g>
<defs>
<clipPath id="clip0">
<rect width="13" height="13" fill="white"/>
</clipPath>
</defs>
</svg>
