<svg width="13" height="13" viewBox="0 0 13 13" fill="none" xmlns="http://www.w3.org/2000/svg">
<g clip-path="url(#clip0)">
<path d="M12.7477 10.3371L11.3065 9.37622L10.0253 8.52226C9.77809 8.35776 9.4458 8.41169 9.26327 8.64599L8.47051 9.66513C8.30022 9.88628 7.99388 9.94984 7.74968 9.81463C7.21176 9.51541 6.57566 9.23368 5.17213 7.82835C3.7686 6.42302 3.48507 5.78872 3.18584 5.2508C3.05064 5.00659 3.11419 4.70026 3.33534 4.52999L4.35449 3.73723C4.58876 3.55472 4.64272 3.22244 4.47821 2.97516L3.65049 1.73345L2.66339 0.252787C2.49538 0.000762236 2.15906 -0.074901 1.89932 0.0808687L0.760916 0.763818C0.453262 0.945079 0.22711 1.23778 0.129306 1.58123C-0.182004 2.71626 -0.244769 5.22007 3.76792 9.23276C7.7806 13.2454 10.2842 13.1825 11.4192 12.8711C11.7627 12.7734 12.0554 12.5472 12.2366 12.2395L12.9196 11.1012C13.0754 10.8414 12.9997 10.5051 12.7477 10.3371Z" fill="#919191"/>
<path d="M7.39648 2.01724C9.49987 2.01957 11.2044 3.72413 11.2068 5.82754C11.2068 5.95132 11.3071 6.05168 11.4309 6.05168C11.5547 6.05168 11.6551 5.95134 11.6551 5.82754C11.6525 3.47667 9.74737 1.57156 7.39651 1.56897C7.27273 1.56897 7.17236 1.66931 7.17236 1.79312C7.17234 1.91687 7.27268 2.01724 7.39648 2.01724Z" fill="#919191"/>
<path d="M7.39651 3.36199C8.75751 3.36359 9.86039 4.46649 9.86199 5.82747C9.86199 5.95124 9.96233 6.05161 10.0861 6.05161C10.2099 6.05161 10.3103 5.95127 10.3103 5.82747C10.3084 4.21901 9.00499 2.91555 7.39651 2.9137C7.27273 2.9137 7.17236 3.01404 7.17236 3.13784C7.17236 3.26165 7.27271 3.36199 7.39651 3.36199Z" fill="#919191"/>
<path d="M7.39648 4.70681C8.01512 4.70755 8.51643 5.20885 8.51716 5.82749C8.51716 5.95127 8.6175 6.05163 8.74131 6.05163C8.86509 6.05163 8.96545 5.95129 8.96545 5.82749C8.96446 4.9614 8.2626 4.25954 7.39651 4.25854C7.27273 4.25854 7.17236 4.35889 7.17236 4.48269C7.17234 4.60647 7.27268 4.70681 7.39648 4.70681Z" fill="#919191"/>
</g>
<defs>
<clipPath id="clip0">
<rect width="13" height="13" fill="white"/>
</clipPath>
</defs>
</svg>
