<svg width="13" height="13" viewBox="0 0 13 13" fill="none" xmlns="http://www.w3.org/2000/svg">
<g clip-path="url(#clip0)">
<path d="M12.7443 0.0489462C12.6134 -0.0166409 12.4592 -0.0166409 12.3284 0.0489462L0.257318 6.08446C0.0280214 6.19923 -0.0648234 6.47812 0.0499201 6.70742C0.115235 6.83794 0.23814 6.93016 0.381719 6.95636L5.17252 7.82779L6.04395 12.6186C6.07962 12.815 6.23685 12.9666 6.4344 12.9951C6.45624 12.9983 6.47828 12.9998 6.50031 12.9998C6.67629 12.9998 6.83717 12.9004 6.91584 12.743L12.9514 0.671984C13.0662 0.442741 12.9735 0.163799 12.7443 0.0489462ZM6.70788 11.0818L6.02817 7.34539C5.99303 7.15671 5.84542 7.0091 5.65677 6.97398L1.91849 6.29243L11.4978 1.50258L6.70788 11.0818Z" fill="#909090"/>
</g>
<defs>
<clipPath id="clip0">
<rect width="13" height="13" fill="white"/>
</clipPath>
</defs>
</svg>
