<svg width="16" height="16" viewBox="0 0 16 16" fill="none" xmlns="http://www.w3.org/2000/svg">
<circle cx="8" cy="8" r="8" fill="#393939"/>
<path d="M8.57875 7.67651L10.6631 5.59208C10.7987 5.45649 10.7987 5.23727 10.6631 5.10169C10.5275 4.9661 10.3083 4.9661 10.1727 5.10169L8.0883 7.18612L6.00398 5.10169C5.86833 4.9661 5.64918 4.9661 5.5136 5.10169C5.37795 5.23727 5.37795 5.45649 5.5136 5.59208L7.59793 7.67651L5.5136 9.76095C5.37795 9.89653 5.37795 10.1157 5.5136 10.2513C5.58117 10.319 5.67001 10.3529 5.75879 10.3529C5.84757 10.3529 5.93634 10.319 6.00398 10.2513L8.0883 8.1669L10.1727 10.2513C10.2403 10.319 10.3291 10.3529 10.4179 10.3529C10.5067 10.3529 10.5954 10.319 10.6631 10.2513C10.7987 10.1157 10.7987 9.89653 10.6631 9.76095L8.57875 7.67651Z" fill="white"/>
</svg>
