<svg width="15" height="15" viewBox="0 0 15 15" fill="none" xmlns="http://www.w3.org/2000/svg">
<path d="M0.9375 7.95978V13.5848C0.9375 14.1023 1.35844 14.5223 1.875 14.5223H6.5625V7.95978H0.9375Z" fill="#909090"/>
<path d="M14.0625 4.2098H11.0963C11.3091 4.06448 11.4919 3.92011 11.6194 3.79074C12.3759 3.03042 12.3759 1.79292 11.6194 1.03261C10.8844 0.291985 9.60375 0.29386 8.86969 1.03261C8.46281 1.44042 7.38469 3.10073 7.53375 4.2098H7.46625C7.61438 3.10073 6.53625 1.44042 6.13031 1.03261C5.39531 0.29386 4.11469 0.29386 3.38063 1.03261C2.625 1.79292 2.625 3.03042 3.37969 3.79074C3.50813 3.92011 3.69094 4.06448 3.90375 4.2098H0.9375C0.420938 4.2098 0 4.63073 0 5.1473V6.55355C0 6.8123 0.21 7.0223 0.46875 7.0223H6.5625V5.1473H8.4375V7.0223H14.5312C14.79 7.0223 15 6.8123 15 6.55355V5.1473C15 4.63073 14.58 4.2098 14.0625 4.2098ZM6.50719 4.17886C6.50719 4.17886 6.46781 4.2098 6.33375 4.2098C5.68594 4.2098 4.44938 3.53667 4.04531 3.1298C3.6525 2.73417 3.6525 2.08917 4.04531 1.69355C4.23563 1.5023 4.48781 1.3973 4.75594 1.3973C5.02313 1.3973 5.27531 1.5023 5.46562 1.69355C6.0975 2.32917 6.72563 3.95292 6.50719 4.17886ZM8.66531 4.2098C8.53219 4.2098 8.49281 4.1798 8.49281 4.17886C8.27437 3.95292 8.9025 2.32917 9.53438 1.69355C9.91219 1.31199 10.5731 1.31011 10.9547 1.69355C11.3484 2.08917 11.3484 2.73417 10.9547 3.1298C10.5506 3.53667 9.31406 4.2098 8.66531 4.2098Z" fill="#909090"/>
<path d="M8.4375 7.95978V14.5223H13.125C13.6425 14.5223 14.0625 14.1023 14.0625 13.5848V7.95978H8.4375Z" fill="#909090"/>
</svg>
