<svg width="11" height="11" viewBox="0 0 11 11" fill="none" xmlns="http://www.w3.org/2000/svg">
<path d="M5.5 0C2.46239 0 0 2.46247 0 5.5C0 8.5377 2.46239 11 5.5 11C8.53761 11 11 8.5377 11 5.5C11 2.46247 8.53761 0 5.5 0ZM5.5 2.75C5.87971 2.75 6.1875 3.05783 6.1875 3.4375C6.1875 3.81734 5.87971 4.125 5.5 4.125C5.12029 4.125 4.8125 3.81734 4.8125 3.4375C4.8125 3.05783 5.12029 2.75 5.5 2.75ZM6.53125 8.25H4.46875C4.27891 8.25 4.125 8.09626 4.125 7.90625C4.125 7.71641 4.27891 7.5625 4.46875 7.5625H4.8125V5.5H4.46875C4.27891 5.5 4.125 5.34626 4.125 5.15625C4.125 4.96641 4.27891 4.8125 4.46875 4.8125H5.84375C6.03359 4.8125 6.1875 4.96641 6.1875 5.15625V7.5625H6.53125C6.72109 7.5625 6.875 7.71641 6.875 7.90625C6.875 8.09626 6.72109 8.25 6.53125 8.25Z" fill="white"/>
</svg>
