<svg width="6" height="6" viewBox="0 0 6 6" fill="none" xmlns="http://www.w3.org/2000/svg">
<path d="M3.57862 2.67651L5.66295 0.592076C5.7986 0.456492 5.7986 0.237272 5.66295 0.101688C5.52737 -0.033896 5.30815 -0.033896 5.17257 0.101688L3.08818 2.18612L1.00385 0.101688C0.86821 -0.033896 0.649058 -0.033896 0.513477 0.101688C0.377832 0.237272 0.377832 0.456492 0.513477 0.592076L2.5978 2.67651L0.513477 4.76095C0.377832 4.89653 0.377832 5.11575 0.513477 5.25133C0.581045 5.31897 0.669887 5.35294 0.758665 5.35294C0.847444 5.35294 0.936223 5.31897 1.00385 5.25133L3.08818 3.1669L5.17257 5.25133C5.2402 5.31897 5.32898 5.35294 5.41776 5.35294C5.50654 5.35294 5.59532 5.31897 5.66295 5.25133C5.7986 5.11575 5.7986 4.89653 5.66295 4.76095L3.57862 2.67651Z" fill="white"/>
</svg>
