<svg width="13" height="13" viewBox="0 0 13 13" fill="none" xmlns="http://www.w3.org/2000/svg">
<g clip-path="url(#clip0)">
<path d="M12.7444 0.0489462C12.6135 -0.0166409 12.4593 -0.0166409 12.3285 0.0489462L0.25744 6.08446C0.0281435 6.19923 -0.0647014 6.47812 0.0500422 6.70742C0.115357 6.83794 0.238262 6.93016 0.381841 6.95636L5.17264 7.82779L6.04407 12.6186C6.07974 12.815 6.23697 12.9666 6.43452 12.9951C6.45637 12.9983 6.4784 12.9998 6.50044 12.9998C6.67641 12.9998 6.83729 12.9004 6.91597 12.743L12.9515 0.671984C13.0664 0.442741 12.9736 0.163799 12.7444 0.0489462ZM6.708 11.0818L6.0283 7.34539C5.99315 7.15671 5.84554 7.0091 5.65689 6.97398L1.91861 6.29243L11.4979 1.50258L6.708 11.0818Z" fill="#909090"/>
</g>
<defs>
<clipPath id="clip0">
<rect width="13" height="13" fill="white"/>
</clipPath>
</defs>
</svg>
