<svg width="18" height="18" viewBox="0 0 18 18" fill="none" xmlns="http://www.w3.org/2000/svg">
<g clip-path="url(#clip0)">
<path d="M10.6491 9.01606L17.6579 2.00701C18.1141 1.5511 18.1141 0.813955 17.6579 0.358046C17.202 -0.0978641 16.4649 -0.0978641 16.009 0.358046L8.99991 7.3671L1.99106 0.358046C1.53493 -0.0978641 0.798003 -0.0978641 0.342093 0.358046C-0.114031 0.813955 -0.114031 1.5511 0.342093 2.00701L7.35094 9.01606L0.342093 16.0251C-0.114031 16.481 -0.114031 17.2182 0.342093 17.6741C0.569301 17.9015 0.868045 18.0157 1.16658 18.0157C1.46511 18.0157 1.76364 17.9015 1.99106 17.6741L8.99991 10.665L16.009 17.6741C16.2364 17.9015 16.5349 18.0157 16.8335 18.0157C17.132 18.0157 17.4305 17.9015 17.6579 17.6741C18.1141 17.2182 18.1141 16.481 17.6579 16.0251L10.6491 9.01606Z" fill="#4B4B4B"/>
</g>
<defs>
<clipPath id="clip0">
<rect width="18" height="18" fill="white"/>
</clipPath>
</defs>
</svg>
