<svg width="21" height="21" viewBox="0 0 21 21" fill="none" xmlns="http://www.w3.org/2000/svg">
<path d="M3.54269 5.0767L6.87206 8.0062L9.83831 4.35395C9.92137 4.25185 10.0264 4.1698 10.1456 4.11392C10.2647 4.05803 10.395 4.02975 10.5266 4.03118C10.6582 4.03261 10.7878 4.06371 10.9057 4.12217C11.0236 4.18063 11.1269 4.26495 11.2077 4.36883L14.0383 8.00533L17.4753 5.03383C17.6103 4.91738 17.7776 4.84493 17.9549 4.82618C18.1322 4.80743 18.3109 4.84327 18.4673 4.92891C18.6236 5.01456 18.7501 5.14591 18.8297 5.3054C18.9094 5.46488 18.9384 5.64489 18.9129 5.82133L17.6004 14.875H3.43156L2.09894 5.86245C2.07246 5.68504 2.10116 5.50377 2.18114 5.3432C2.26112 5.18264 2.38852 5.05053 2.54608 4.96478C2.70364 4.87903 2.88375 4.84378 3.06201 4.8638C3.24027 4.88382 3.40807 4.95814 3.54269 5.0767ZM3.49981 15.75H17.4998V16.625C17.4998 16.857 17.4076 17.0796 17.2435 17.2437C17.0794 17.4078 16.8569 17.5 16.6248 17.5H4.37481C4.14275 17.5 3.92019 17.4078 3.75609 17.2437C3.592 17.0796 3.49981 16.857 3.49981 16.625V15.75Z" fill="white"/>
</svg>
