<svg width="15" height="15" viewBox="0 0 15 15" fill="none" xmlns="http://www.w3.org/2000/svg">
<path d="M2.53052 3.62623L4.90865 5.71873L7.0274 3.10998C7.08673 3.03705 7.16175 2.97845 7.24687 2.93853C7.33199 2.89861 7.42501 2.87841 7.51902 2.87943C7.61303 2.88045 7.7056 2.90267 7.78983 2.94443C7.87407 2.98618 7.94779 3.04641 8.00552 3.12061L10.0274 5.71811L12.4824 3.59561C12.5788 3.51243 12.6983 3.46068 12.825 3.44729C12.9516 3.43389 13.0793 3.4595 13.191 3.52067C13.3026 3.58184 13.393 3.67567 13.4498 3.78959C13.5067 3.90351 13.5275 4.03208 13.5093 4.15811L12.5718 10.625H2.45115L1.49927 4.18748C1.48037 4.06076 1.50087 3.93128 1.55799 3.81659C1.61512 3.7019 1.70612 3.60754 1.81866 3.54629C1.9312 3.48504 2.05985 3.45986 2.18718 3.47416C2.31451 3.48846 2.43437 3.54155 2.53052 3.62623ZM2.4999 11.25H12.4999V11.875C12.4999 12.0407 12.4341 12.1997 12.3168 12.3169C12.1996 12.4341 12.0407 12.5 11.8749 12.5H3.1249C2.95914 12.5 2.80017 12.4341 2.68296 12.3169C2.56575 12.1997 2.4999 12.0407 2.4999 11.875V11.25Z" fill="white"/>
</svg>
