<svg width="13" height="13" viewBox="0 0 13 13" fill="none" xmlns="http://www.w3.org/2000/svg">
<path d="M0.27137 2.41607C2.05557 3.92709 5.18628 6.58544 6.10644 7.41432C6.22997 7.52619 6.36245 7.58306 6.49999 7.58306C6.63726 7.58306 6.76952 7.52672 6.89276 7.41538C7.81371 6.58569 10.9444 3.92709 12.7286 2.41607C12.8397 2.32218 12.8567 2.15714 12.7667 2.04235C12.5588 1.77709 12.2489 1.625 11.9167 1.625H1.08334C0.751151 1.625 0.441157 1.77709 0.233284 2.04237C0.14335 2.15714 0.160286 2.32218 0.27137 2.41607Z" fill="#909090"/>
<path d="M12.8429 3.23484C12.7469 3.19016 12.634 3.20575 12.5541 3.274C10.5754 4.95135 8.05015 7.10138 7.25563 7.81732C6.80969 8.21986 6.19079 8.21986 5.74382 7.81679C4.89694 7.05375 2.06111 4.64296 0.44591 3.27397C0.365498 3.20572 0.252307 3.19066 0.157092 3.23482C0.0613691 3.27928 0 3.37503 0 3.48055V10.2916C0 10.8891 0.48585 11.3749 1.08334 11.3749H11.9167C12.5142 11.3749 13 10.8891 13 10.2916V3.48055C13 3.37503 12.9386 3.27902 12.8429 3.23484Z" fill="#909090"/>
</svg>
