<svg width="13" height="13" viewBox="0 0 13 13" fill="none" xmlns="http://www.w3.org/2000/svg">
<g clip-path="url(#clip0)">
<path d="M11.6071 0.000854492H1.39286C0.623602 0.000854492 0 0.624457 0 1.39371V8.82229C0 9.59154 0.623602 10.2151 1.39286 10.2151H3.04108L2.78851 12.4855C2.76036 12.7404 2.94415 12.9698 3.19903 12.9979C3.33064 13.0125 3.4622 12.9701 3.56062 12.8815L6.52368 10.2151H11.6071C12.3764 10.2151 13 9.59154 13 8.82229V1.39371C13 0.624457 12.3764 0.000854492 11.6071 0.000854492ZM10.6786 7.8937H2.32142C2.06499 7.8937 1.85712 7.68583 1.85712 7.4294C1.85712 7.17298 2.06499 6.96511 2.32142 6.96511H10.6786C10.935 6.96511 11.1428 7.17298 11.1428 7.4294C11.1428 7.68583 10.935 7.8937 10.6786 7.8937ZM10.6786 5.57228H2.32142C2.06499 5.57228 1.85712 5.36441 1.85712 5.10799C1.85712 4.85156 2.06499 4.64369 2.32142 4.64369H10.6786C10.935 4.64369 11.1428 4.85156 11.1428 5.10799C11.1428 5.36441 10.935 5.57228 10.6786 5.57228ZM10.6786 3.25086H2.32142C2.06499 3.25086 1.85712 3.04299 1.85712 2.78657C1.85712 2.53014 2.06499 2.32227 2.32142 2.32227H10.6786C10.935 2.32227 11.1428 2.53014 11.1428 2.78657C11.1428 3.04299 10.935 3.25086 10.6786 3.25086Z" fill="#666666"/>
</g>
<defs>
<clipPath id="clip0">
<rect width="13" height="13" fill="white"/>
</clipPath>
</defs>
</svg>
