<svg width="13" height="13" viewBox="0 0 13 13" fill="none" xmlns="http://www.w3.org/2000/svg">
<g clip-path="url(#clip0)">
<path d="M11.6071 0.000976562H1.39286C0.623602 0.000976562 0 0.624579 0 1.39383V8.82241C0 9.59166 0.623602 10.2153 1.39286 10.2153H3.04108L2.78851 12.4856C2.76036 12.7405 2.94415 12.9699 3.19903 12.9981C3.33064 13.0126 3.4622 12.9702 3.56062 12.8817L6.52368 10.2153H11.6071C12.3764 10.2153 13 9.59166 13 8.82241V1.39383C13 0.624579 12.3764 0.000976562 11.6071 0.000976562ZM10.6786 7.89382H2.32142C2.06499 7.89382 1.85712 7.68595 1.85712 7.42952C1.85712 7.1731 2.06499 6.96523 2.32142 6.96523H10.6786C10.935 6.96523 11.1428 7.1731 11.1428 7.42952C11.1428 7.68595 10.935 7.89382 10.6786 7.89382ZM10.6786 5.5724H2.32142C2.06499 5.5724 1.85712 5.36453 1.85712 5.10811C1.85712 4.85168 2.06499 4.64381 2.32142 4.64381H10.6786C10.935 4.64381 11.1428 4.85168 11.1428 5.10811C11.1428 5.36453 10.935 5.5724 10.6786 5.5724ZM10.6786 3.25098H2.32142C2.06499 3.25098 1.85712 3.04312 1.85712 2.78669C1.85712 2.53026 2.06499 2.32239 2.32142 2.32239H10.6786C10.935 2.32239 11.1428 2.53026 11.1428 2.78669C11.1428 3.04312 10.935 3.25098 10.6786 3.25098Z" fill="#fff"/>
</g>
<defs>
<clipPath id="clip0">
<rect width="13" height="13" fill="white"/>
</clipPath>
</defs>
</svg>
