<svg width="17" height="17" viewBox="0 0 17 17" fill="none" xmlns="http://www.w3.org/2000/svg">
<path d="M8.49958 0C5.04888 0 2.24121 2.80767 2.24121 6.25872C2.24121 7.15888 2.42545 8.01834 2.78855 8.81342C4.35331 12.2375 7.35341 15.8526 8.23583 16.8789C8.30194 16.9556 8.39832 16.9998 8.49975 16.9998C8.60118 16.9998 8.69757 16.9556 8.76368 16.8789C9.64575 15.8528 12.6458 12.2379 14.2111 8.81342C14.5744 8.01834 14.7585 7.15888 14.7585 6.25872C14.7581 2.80767 11.9505 0 8.49958 0ZM8.49958 9.50951C6.70708 9.50951 5.24861 8.05105 5.24861 6.25854C5.24861 4.46586 6.70708 3.0074 8.49958 3.0074C10.2921 3.0074 11.7506 4.46586 11.7506 6.25854C11.7507 8.05105 10.2923 9.50951 8.49958 9.50951Z" fill="white"/>
</svg>
