<svg width="10" height="10" viewBox="0 0 10 10" fill="none" xmlns="http://www.w3.org/2000/svg">
<g clip-path="url(#clip0)">
<path d="M3.646 7.33838V9.27088C3.646 9.40588 3.73266 9.52547 3.861 9.56797C3.89308 9.57838 3.926 9.58338 3.9585 9.58338C4.056 9.58338 4.15016 9.53755 4.21016 9.45588L5.34058 7.91755L3.646 7.33838Z" fill="white"/>
<path d="M9.86828 0.0570991C9.77245 -0.0108176 9.64661 -0.0199842 9.54245 0.0345991L0.167447 4.93043C0.0566136 4.98835 -0.00880308 5.10668 0.000363585 5.23127C0.00994692 5.35627 0.0928636 5.46293 0.21078 5.50335L2.81703 6.39418L8.36745 1.64835L4.07245 6.82293L8.44036 8.31585C8.47286 8.32668 8.50703 8.33251 8.5412 8.33251C8.59786 8.33251 8.65411 8.3171 8.7037 8.2871C8.78286 8.23876 8.83661 8.15751 8.85036 8.06627L9.9962 0.357932C10.0133 0.241266 9.96411 0.125432 9.86828 0.0570991Z" fill="white"/>
</g>
<defs>
<clipPath id="clip0">
<rect width="10" height="10" fill="white"/>
</clipPath>
</defs>
</svg>
