<svg width="24" height="24" viewBox="0 0 24 24" fill="none" xmlns="http://www.w3.org/2000/svg">
<g clip-path="url(#clip0)">
<path d="M20.2274 2.14662C20.6384 1.73181 21.1968 1.49655 21.7807 1.49225C22.3646 1.48795 22.9265 1.71496 23.3435 2.12366C23.7606 2.53237 23.9988 3.08954 24.0063 3.67341C24.0138 4.25728 23.7898 4.82037 23.3834 5.23962L11.6234 19.9411C11.4214 20.1586 11.1776 20.3332 10.9066 20.4544C10.6356 20.5756 10.343 20.641 10.0461 20.6466C9.74933 20.6522 9.45443 20.5979 9.17906 20.487C8.90369 20.3761 8.65349 20.2109 8.4434 20.0011L0.646397 12.2071C0.232063 11.7926 -0.00062887 11.2304 -0.000488218 10.6443C-0.000347565 10.0582 0.232614 9.4962 0.647147 9.08187C1.06168 8.66753 1.62383 8.43484 2.20993 8.43498C2.79603 8.43512 3.35806 8.66808 3.7724 9.08262L9.9389 15.2506L20.1689 2.21562C20.1875 2.1919 20.2075 2.16936 20.2289 2.14812L20.2274 2.14662Z" fill="#45D880"/>
</g>
<defs>
<clipPath id="clip0">
<rect width="24" height="24" fill="white"/>
</clipPath>
</defs>
</svg>
