<svg width="45" height="17" viewBox="0 0 45 17" fill="none" xmlns="http://www.w3.org/2000/svg">
<path d="M21.1776 13.3192H19.7859V2.27625H24.2796C25.3639 2.27625 26.2191 2.59633 26.8451 3.2365C27.4711 3.87667 27.7841 4.66585 27.7841 5.60403C27.7841 6.54221 27.4655 7.33138 26.8283 7.97155C26.2023 8.61172 25.3528 8.93181 24.2796 8.93181H21.1776V13.3192ZM24.112 7.70666C24.7715 7.70666 25.308 7.5135 25.7216 7.12719C26.1353 6.72984 26.3421 6.22212 26.3421 5.60403C26.3421 4.98593 26.1353 4.48373 25.7216 4.09742C25.308 3.70007 24.7715 3.5014 24.112 3.5014H21.1776V7.70666H24.112Z" fill="white"/>
<path d="M35.5707 13.3192H34.3131V12.4086C33.6312 13.1481 32.737 13.5179 31.6303 13.5179C30.8813 13.5179 30.2218 13.2806 29.6517 12.8059C29.0816 12.3313 28.7966 11.6856 28.7966 10.8689C28.7966 10.03 29.076 9.38434 29.6349 8.93181C30.205 8.46824 30.8702 8.23645 31.6303 8.23645C32.7817 8.23645 33.6759 8.60069 34.3131 9.32916V7.88877C34.3131 7.35898 34.1231 6.94507 33.743 6.64706C33.363 6.34905 32.8711 6.20005 32.2675 6.20005C31.3173 6.20005 30.4901 6.5698 29.7858 7.30931L29.199 6.44839C30.0597 5.5654 31.1384 5.1239 32.4351 5.1239C33.363 5.1239 34.1175 5.34465 34.6988 5.78614C35.2801 6.22764 35.5707 6.90644 35.5707 7.82255V13.3192ZM32.083 12.6238C33.0891 12.6238 33.8324 12.2927 34.3131 11.6305V10.1239C33.8324 9.46161 33.0891 9.13048 32.083 9.13048C31.5017 9.13048 31.0211 9.29604 30.641 9.62717C30.2721 9.94725 30.0877 10.3667 30.0877 10.8854C30.0877 11.3932 30.2721 11.8126 30.641 12.1437C31.0211 12.4638 31.5017 12.6238 32.083 12.6238Z" fill="white"/>
<path d="M37.6389 16.4483L37.8401 15.3225C38.0413 15.4108 38.2705 15.4549 38.5276 15.4549C38.8182 15.4549 39.0585 15.3942 39.2486 15.2728C39.4386 15.1514 39.6007 14.9306 39.7348 14.6106L40.2714 13.402L36.8843 5.32257H38.2425L40.9421 11.8788L43.6249 5.32257H44.9999L40.9421 14.9417C40.495 16.0013 39.7013 16.5421 38.5611 16.5642C38.2258 16.5642 37.9183 16.5256 37.6389 16.4483Z" fill="white"/>
<g clip-path="url(#clip0)">
<path d="M3.80394 7.73932C3.80394 7.03143 3.99897 6.3683 4.33781 5.80049V3.39197H1.92929C0.973361 4.63346 0.4552 6.1465 0.4552 7.73932C0.4552 9.33215 0.973361 10.8452 1.92929 12.0867H4.33781V9.67816C3.99897 9.11035 3.80394 8.44722 3.80394 7.73932Z" fill="#FBBD00"/>
<path d="M7.59917 11.5346L5.9248 13.209L7.59917 14.8833C9.19203 14.8833 10.705 14.3652 11.9465 13.4093V11.0033H9.54057C8.9678 11.3434 8.30188 11.5346 7.59917 11.5346Z" fill="#0F9D58"/>
<path d="M4.33772 9.6781L1.9292 12.0866C2.11846 12.3324 2.32455 12.5678 2.54754 12.7908C3.89686 14.1401 5.69086 14.8832 7.59908 14.8832V11.5345C6.21427 11.5345 5.00055 10.7888 4.33772 9.6781Z" fill="#31AA52"/>
<path d="M14.7431 7.73935C14.7431 7.30471 14.7037 6.86926 14.6261 6.44515L14.5633 6.10193H7.59912V9.45066H10.9884C10.6593 10.1054 10.1532 10.6395 9.54049 11.0033L11.9464 13.4093C12.1922 13.22 12.4276 13.0139 12.6507 12.7909C14 11.4416 14.7431 9.64757 14.7431 7.73935Z" fill="#3C79E6"/>
<path d="M10.2828 5.05566L10.5788 5.35163L12.9467 2.98374L12.6507 2.68777C11.3014 1.33845 9.50742 0.595337 7.59917 0.595337L5.9248 2.2697L7.59917 3.94407C8.61289 3.94407 9.56597 4.33883 10.2828 5.05566Z" fill="#CF2D48"/>
<path d="M7.59911 3.94407V0.595337C5.69089 0.595337 3.89689 1.33845 2.54754 2.68774C2.32455 2.91074 2.11846 3.14612 1.9292 3.39195L4.33772 5.80047C5.00057 4.68972 6.2143 3.94407 7.59911 3.94407Z" fill="#EB4132"/>
</g>
<defs>
<clipPath id="clip0">
<rect width="14.2879" height="14.2879" fill="white" transform="translate(0.4552 0.595337)"/>
</clipPath>
</defs>
</svg>
