<svg width="16" height="16" viewBox="0 0 16 16" fill="none" xmlns="http://www.w3.org/2000/svg">
<g clip-path="url(#clip0)">
<path d="M13.9581 1.16557C12.404 -0.388523 9.87555 -0.388523 8.32146 1.16557L2.38674 7.10026C2.20358 7.28341 2.20358 7.58013 2.38674 7.76329C2.56989 7.94645 2.86661 7.94645 3.04977 7.76329L8.98446 1.8286C10.1365 0.677477 12.143 0.677477 13.295 1.8286C14.4832 3.01682 14.4832 4.95051 13.295 6.13873L5.00802 14.519C4.29921 15.2279 3.06427 15.2279 2.35549 14.519C1.62424 13.7878 1.62424 12.5982 2.35549 11.8669L10.311 3.81766C10.5765 3.5521 11.0399 3.5521 11.3055 3.81766C11.5798 4.09191 11.5798 4.53838 11.3055 4.81266L3.68199 12.5299C3.52386 12.6881 3.52386 13.0348 3.68199 13.193C3.86514 13.3761 4.16186 13.3761 4.34502 13.193L11.9685 5.47566C12.6087 4.83551 12.6087 3.79476 11.9685 3.15463C11.3485 2.53466 10.267 2.53557 9.64795 3.15463L1.69246 11.2039C0.604143 12.2922 0.604143 14.0937 1.69246 15.182C2.22408 15.7137 2.93058 16 3.68196 16C4.43333 16 5.13989 15.7137 5.67105 15.1821L13.958 6.80173C15.5121 5.24763 15.5121 2.71963 13.9581 1.16557Z" fill="#333333"/>
</g>
<defs>
<clipPath id="clip0">
<rect width="16" height="16" fill="white"/>
</clipPath>
</defs>
</svg>
