<svg width="13" height="17" viewBox="0 0 13 17" fill="none" xmlns="http://www.w3.org/2000/svg">
<path d="M6.4997 0C3.04901 0 0.241333 2.80767 0.241333 6.25872C0.241333 7.15888 0.425577 8.01834 0.788671 8.81342C2.35344 12.2375 5.35353 15.8526 6.23595 16.8789C6.30206 16.9556 6.39845 16.9998 6.49988 16.9998C6.60131 16.9998 6.69769 16.9556 6.7638 16.8789C7.64588 15.8528 10.646 12.2379 12.2113 8.81342C12.5745 8.01834 12.7586 7.15888 12.7586 6.25872C12.7582 2.80767 9.95057 0 6.4997 0ZM6.4997 9.50951C4.7072 9.50951 3.24873 8.05105 3.24873 6.25854C3.24873 4.46586 4.7072 3.0074 6.4997 3.0074C8.29221 3.0074 9.75067 4.46586 9.75067 6.25854C9.75085 8.05105 8.29238 9.50951 6.4997 9.50951Z" fill="#666666"/>
</svg>
