<svg width="22" height="22" viewBox="0 0 22 22" fill="none" xmlns="http://www.w3.org/2000/svg">
<path d="M10.9635 20.1362H2.74085C2.23652 20.1362 1.82725 19.7269 1.82725 19.2226V2.77739C1.82725 2.27307 2.23657 1.86379 2.74085 1.86379H10.9635C11.4687 1.86379 11.8771 1.45541 11.8771 0.950187C11.8771 0.44496 11.4687 0.036499 10.9635 0.036499H2.74085C1.22972 0.036499 0 1.26626 0 2.77739V19.2226C0 20.7337 1.22972 21.9634 2.74085 21.9634H10.9635C11.4687 21.9634 11.8771 21.555 11.8771 21.0498C11.8771 20.5446 11.4687 20.1362 10.9635 20.1362Z" fill="#FFC000"/>
<path d="M21.7273 10.3495L16.1725 4.86776C15.8144 4.51327 15.2352 4.51787 14.8807 4.87691C14.5262 5.23596 14.5298 5.81428 14.8898 6.16877L18.8595 10.0864H8.22219C7.71697 10.0864 7.30859 10.4947 7.30859 11C7.30859 11.5052 7.71697 11.9136 8.22219 11.9136H18.8595L14.8898 15.8312C14.5299 16.1857 14.5271 16.764 14.8807 17.123C15.0597 17.3039 15.2954 17.3953 15.5312 17.3953C15.7632 17.3953 15.9953 17.3076 16.1725 17.1322L21.7273 11.6504C21.9009 11.4787 21.9996 11.2448 21.9996 10.9999C21.9996 10.7552 21.9018 10.5222 21.7273 10.3495Z" fill="#FFC000"/>
</svg>
