<svg width="28" height="28" viewBox="0 0 28 28" fill="none" xmlns="http://www.w3.org/2000/svg">
<g clip-path="url(#clip0)">
<path d="M27.9999 14C27.9999 18.6222 24.2666 22.4 19.5999 22.4C14.9777 22.4 11.2 18.6222 11.2 14C11.2 9.37775 14.9333 5.59998 19.5555 5.59998C24.2666 5.59998 27.9999 9.37775 27.9999 14Z" fill="#FFB600"/>
<path d="M19.5999 5.59998C24.2222 5.59998 27.9999 9.37775 27.9999 14C27.9999 18.6222 24.2666 22.4 19.5999 22.4C14.9777 22.4 11.2 18.6222 11.2 14" fill="#F7981D"/>
<path d="M19.6 5.59998C24.2222 5.59998 28 9.37775 28 14C28 18.6222 24.2666 22.4 19.6 22.4" fill="#FF8500"/>
<path d="M8.31111 5.59998C3.73333 5.64442 0 9.37775 0 14C0 18.6222 3.73333 22.4 8.4 22.4C10.5778 22.4 12.5333 21.5555 14.0444 20.2222C14.3556 19.9555 14.6222 19.6444 14.8889 19.3333H13.1556C12.9333 19.0666 12.7111 18.7555 12.5333 18.4889H15.5111C15.6889 18.2222 15.8667 17.9111 16 17.6H12.0444C11.9111 17.3333 11.7778 17.0222 11.6889 16.7111H16.3111C16.5778 15.8666 16.7556 14.9778 16.7556 14.0444C16.7556 13.4222 16.6667 12.8444 16.5778 12.2666H11.4222C11.4667 11.9555 11.5556 11.6889 11.6444 11.3778H16.2667C16.1778 11.0666 16.0444 10.7555 15.9111 10.4889H12C12.1333 10.1778 12.3111 9.91109 12.4889 9.59998H15.4667C15.2889 9.28886 15.0667 8.97775 14.8 8.71109H13.1556C13.4222 8.39998 13.6889 8.13331 14 7.86664C12.5333 6.48886 10.5333 5.68886 8.35556 5.68886C8.35556 5.59998 8.35556 5.59998 8.31111 5.59998Z" fill="#FF5050"/>
<path d="M0 14.0001C0 18.6223 3.73333 22.4001 8.4 22.4001C10.5778 22.4001 12.5333 21.5556 14.0444 20.2223C14.3556 19.9556 14.6222 19.6445 14.8889 19.3334H13.1556C12.9333 19.0667 12.7111 18.7556 12.5333 18.489H15.5111C15.6889 18.2223 15.8667 17.9112 16 17.6001H12.0444C11.9111 17.3334 11.7778 17.0223 11.6889 16.7112H16.3111C16.5778 15.8667 16.7556 14.9779 16.7556 14.0445C16.7556 13.4223 16.6667 12.8445 16.5778 12.2667H11.4222C11.4667 11.9556 11.5556 11.689 11.6444 11.3779H16.2667C16.1778 11.0667 16.0444 10.7556 15.9111 10.489H12C12.1333 10.1779 12.3111 9.91119 12.4889 9.60008H15.4667C15.2889 9.28896 15.0667 8.97785 14.8 8.71119H13.1556C13.4222 8.40008 13.6889 8.13341 14 7.86674C12.5333 6.48896 10.5333 5.68896 8.35556 5.68896H8.31111" fill="#E52836"/>
<path d="M8.39992 22.4001C10.5777 22.4001 12.5333 21.5556 14.0444 20.2223C14.3555 19.9556 14.6221 19.6445 14.8888 19.3334H13.1555C12.9333 19.0667 12.711 18.7556 12.5333 18.489H15.511C15.6888 18.2223 15.8666 17.9112 15.9999 17.6001H12.0444C11.911 17.3334 11.7777 17.0223 11.6888 16.7112H16.311C16.5777 15.8667 16.7555 14.9779 16.7555 14.0445C16.7555 13.4223 16.6666 12.8445 16.5777 12.2667H11.4221C11.4666 11.9556 11.5555 11.689 11.6444 11.3779H16.2666C16.1777 11.0667 16.0444 10.7556 15.911 10.489H11.9999C12.1333 10.1779 12.311 9.91119 12.4888 9.60008H15.4666C15.2888 9.28896 15.0666 8.97785 14.7999 8.71119H13.1555C13.4221 8.40008 13.6888 8.13341 13.9999 7.86674C12.5333 6.48896 10.5333 5.68896 8.35548 5.68896H8.31104" fill="#CB2026"/>
<path d="M11.3778 16.1334L11.5111 15.3778C11.4666 15.3778 11.3778 15.4223 11.2889 15.4223C10.9778 15.4223 10.9333 15.2445 10.9778 15.1556L11.2444 13.6001H11.7333L11.8666 12.7556H11.4222L11.5111 12.2223H10.6222C10.6222 12.2223 10.0889 15.1556 10.0889 15.5112C10.0889 16.0445 10.4 16.2667 10.8 16.2667C11.0666 16.2667 11.2889 16.1778 11.3778 16.1334Z" fill="white"/>
<path d="M11.6887 14.7112C11.6887 15.9556 12.5332 16.2668 13.2443 16.2668C13.9109 16.2668 14.1776 16.1334 14.1776 16.1334L14.3554 15.289C14.3554 15.289 13.8665 15.5112 13.4221 15.5112C12.4443 15.5112 12.6221 14.8001 12.6221 14.8001H14.4443C14.4443 14.8001 14.5776 14.2223 14.5776 14.0001C14.5776 13.4223 14.2665 12.7112 13.2887 12.7112C12.3554 12.6223 11.6887 13.6001 11.6887 14.7112ZM13.2443 13.4223C13.7332 13.4223 13.6443 14.0001 13.6443 14.0445H12.6665C12.6665 14.0001 12.7554 13.4223 13.2443 13.4223Z" fill="white"/>
<path d="M18.8888 16.1334L19.0666 15.1556C19.0666 15.1556 18.6221 15.3778 18.311 15.3778C17.6888 15.3778 17.4221 14.8889 17.4221 14.3556C17.4221 13.2889 17.9554 12.7112 18.5777 12.7112C19.0221 12.7112 19.3777 12.9778 19.3777 12.9778L19.511 12.0445C19.511 12.0445 18.9777 11.8223 18.4888 11.8223C17.4666 11.8223 16.4443 12.7112 16.4443 14.4C16.4443 15.5112 16.9777 16.2667 18.0443 16.2667C18.3999 16.2667 18.8888 16.1334 18.8888 16.1334Z" fill="white"/>
<path d="M6.48881 12.6223C5.86659 12.6223 5.42215 12.8001 5.42215 12.8001L5.28881 13.5556C5.28881 13.5556 5.68881 13.3779 6.26659 13.3779C6.5777 13.3779 6.84437 13.4223 6.84437 13.689C6.84437 13.8668 6.79992 13.9112 6.79992 13.9112C6.79992 13.9112 6.53326 13.9112 6.39992 13.9112C5.64437 13.9112 4.79993 14.2223 4.79993 15.2445C4.79993 16.0445 5.33326 16.2223 5.64437 16.2223C6.26659 16.2223 6.53326 15.8223 6.5777 15.8223L6.53326 16.1779H7.33326L7.68881 13.7334C7.68881 12.6668 6.79992 12.6223 6.48881 12.6223ZM6.66659 14.6223C6.66659 14.7556 6.5777 15.4668 6.04437 15.4668C5.7777 15.4668 5.68881 15.2445 5.68881 15.1112C5.68881 14.889 5.82215 14.5779 6.48881 14.5779C6.62215 14.6223 6.66659 14.6223 6.66659 14.6223Z" fill="white"/>
<path d="M8.53321 16.2223C8.75543 16.2223 9.86654 16.2668 9.86654 15.0668C9.86654 13.9557 8.79987 14.1779 8.79987 13.7334C8.79987 13.5112 8.97765 13.4223 9.28876 13.4223C9.4221 13.4223 9.91098 13.4668 9.91098 13.4668L10.0443 12.6668C10.0443 12.6668 9.73321 12.5779 9.19987 12.5779C8.53321 12.5779 7.86654 12.8445 7.86654 13.7334C7.86654 14.7557 8.97765 14.6668 8.97765 15.0668C8.97765 15.3334 8.66654 15.3779 8.44432 15.3779C8.04432 15.3779 7.64432 15.2445 7.64432 15.2445L7.51099 16.0445C7.55543 16.1334 7.77765 16.2223 8.53321 16.2223Z" fill="white"/>
<path d="M26.2665 11.9111L26.0887 13.1111C26.0887 13.1111 25.7332 12.6667 25.2443 12.6667C24.4443 12.6667 23.7332 13.6445 23.7332 14.8C23.7332 15.5111 24.0887 16.2667 24.8443 16.2667C25.3776 16.2667 25.6887 15.9111 25.6887 15.9111L25.6443 16.2222H26.5332L27.1998 11.9556L26.2665 11.9111ZM25.8665 14.2667C25.8665 14.7556 25.6443 15.3778 25.1554 15.3778C24.8443 15.3778 24.6665 15.1111 24.6665 14.6667C24.6665 13.9556 24.9776 13.5111 25.3776 13.5111C25.6887 13.5111 25.8665 13.7334 25.8665 14.2667Z" fill="white"/>
<path d="M1.64437 16.1778L2.1777 12.9778L2.26659 16.1778H2.88882L4.04437 12.9778L3.55548 16.1778H4.48882L5.19993 11.9111H3.73326L2.84437 14.5334L2.79993 11.9111H1.51104L0.799927 16.1778H1.64437Z" fill="white"/>
<path d="M15.4221 16.1778C15.6888 14.7112 15.7332 13.5112 16.3554 13.7334C16.4443 13.1556 16.5777 12.9334 16.6666 12.7112C16.6666 12.7112 16.6221 12.7112 16.4888 12.7112C16.0888 12.7112 15.7777 13.2445 15.7777 13.2445L15.8666 12.7556H15.0221L14.4443 16.2223H15.4221V16.1778Z" fill="white"/>
<path d="M20.9333 12.6223C20.3111 12.6223 19.8666 12.8001 19.8666 12.8001L19.7333 13.5556C19.7333 13.5556 20.1333 13.3779 20.7111 13.3779C21.0222 13.3779 21.2888 13.4223 21.2888 13.689C21.2888 13.8668 21.2444 13.9112 21.2444 13.9112C21.2444 13.9112 20.9777 13.9112 20.8444 13.9112C20.0888 13.9112 19.2444 14.2223 19.2444 15.2445C19.2444 16.0445 19.7777 16.2223 20.0888 16.2223C20.7111 16.2223 20.9777 15.8223 21.0222 15.8223L20.9777 16.1779H21.7777L22.1333 13.7334C22.1777 12.6668 21.2444 12.6223 20.9333 12.6223ZM21.1555 14.6223C21.1555 14.7556 21.0666 15.4668 20.5333 15.4668C20.2666 15.4668 20.1777 15.2445 20.1777 15.1112C20.1777 14.889 20.3111 14.5779 20.9777 14.5779C21.1111 14.6223 21.1111 14.6223 21.1555 14.6223Z" fill="white"/>
<path d="M22.8889 16.1778C23.1556 14.7112 23.2 13.5112 23.8222 13.7334C23.9111 13.1556 24.0445 12.9334 24.1334 12.7112C24.1334 12.7112 24.0889 12.7112 23.9556 12.7112C23.5556 12.7112 23.2445 13.2445 23.2445 13.2445L23.3334 12.7556H22.4889L21.9111 16.2223H22.8889V16.1778Z" fill="white"/>
<path d="M9.99988 15.5112C9.99988 16.0445 10.311 16.2667 10.711 16.2667C11.0221 16.2667 11.2888 16.1778 11.3777 16.1334L11.511 15.3778C11.4665 15.3778 11.3777 15.4223 11.2888 15.4223C10.9777 15.4223 10.9332 15.2445 10.9777 15.1556L11.2443 13.6001H11.7332L11.8665 12.7556H11.4221L11.511 12.2223" fill="#DCE5E5"/>
<path d="M12.1333 14.7112C12.1333 15.9556 12.5333 16.2668 13.2444 16.2668C13.9111 16.2668 14.1777 16.1334 14.1777 16.1334L14.3555 15.289C14.3555 15.289 13.8666 15.5112 13.4222 15.5112C12.4444 15.5112 12.6222 14.8001 12.6222 14.8001H14.4444C14.4444 14.8001 14.5777 14.2223 14.5777 14.0001C14.5777 13.4223 14.2666 12.7112 13.2889 12.7112C12.3555 12.6223 12.1333 13.6001 12.1333 14.7112ZM13.2444 13.4223C13.7333 13.4223 13.8222 14.0001 13.8222 14.0445H12.6666C12.6666 14.0001 12.7555 13.4223 13.2444 13.4223Z" fill="#DCE5E5"/>
<path d="M18.8888 16.1334L19.0666 15.1556C19.0666 15.1556 18.6221 15.3778 18.311 15.3778C17.6888 15.3778 17.4221 14.8889 17.4221 14.3556C17.4221 13.2889 17.9555 12.7112 18.5777 12.7112C19.0221 12.7112 19.3777 12.9778 19.3777 12.9778L19.511 12.0445C19.511 12.0445 18.9777 11.8223 18.4888 11.8223C17.4666 11.8223 16.8888 12.7112 16.8888 14.4C16.8888 15.5112 16.9777 16.2667 18.0443 16.2667C18.3999 16.2667 18.8888 16.1334 18.8888 16.1334Z" fill="#DCE5E5"/>
<path d="M5.28881 13.6001C5.28881 13.6001 5.68881 13.4223 6.26659 13.4223C6.5777 13.4223 6.84437 13.4667 6.84437 13.7334C6.84437 13.9112 6.79992 13.9556 6.79992 13.9556C6.79992 13.9556 6.53326 13.9556 6.39992 13.9556C5.64437 13.9556 4.79993 14.2667 4.79993 15.289C4.79993 16.089 5.33326 16.2667 5.64437 16.2667C6.26659 16.2667 6.53326 15.8667 6.5777 15.8667L6.53326 16.2223H7.33326L7.68881 13.7778C7.68881 12.7556 6.79992 12.7112 6.44437 12.7112L5.28881 13.6001ZM7.11104 14.6223C7.11104 14.7556 6.5777 15.4667 6.04437 15.4667C5.7777 15.4667 5.68881 15.2445 5.68881 15.1112C5.68881 14.889 5.82215 14.5778 6.48881 14.5778C6.62215 14.6223 7.11104 14.6223 7.11104 14.6223Z" fill="#DCE5E5"/>
<path d="M7.55542 16.1334C7.55542 16.1334 7.82209 16.2223 8.57764 16.2223C8.79986 16.2223 9.91097 16.2668 9.91097 15.0668C9.91097 13.9557 8.84431 14.1779 8.84431 13.7334C8.84431 13.5112 9.02209 13.4223 9.3332 13.4223C9.46653 13.4223 9.95542 13.4668 9.95542 13.4668L10.0888 12.6668C10.0888 12.6668 9.77764 12.5779 9.24431 12.5779C8.57764 12.5779 8.35542 12.8445 8.35542 13.7334C8.35542 14.7557 9.02208 14.6668 9.02208 15.0668C9.02208 15.3334 8.71097 15.3779 8.48875 15.3779" fill="#DCE5E5"/>
<path d="M26.0888 13.1111C26.0888 13.1111 25.7332 12.6667 25.2443 12.6667C24.4443 12.6667 24.1777 13.6445 24.1777 14.8C24.1777 15.5111 24.0888 16.2667 24.8443 16.2667C25.3777 16.2667 25.6888 15.9111 25.6888 15.9111L25.6443 16.2222H26.5332L27.1999 11.9556L26.0888 13.1111ZM26.0443 14.2667C26.0443 14.7556 25.6443 15.3778 25.1554 15.3778C24.8443 15.3778 24.6666 15.1111 24.6666 14.6667C24.6666 13.9556 24.9777 13.5111 25.3777 13.5111C25.6888 13.5111 26.0443 13.7333 26.0443 14.2667Z" fill="#DCE5E5"/>
<path d="M1.64437 16.1778L2.1777 12.9778L2.26659 16.1778H2.88882L4.04437 12.9778L3.55548 16.1778H4.48882L5.19993 11.9111H4.08882L2.84437 14.5334L2.79993 11.9111H2.31104L0.799927 16.1778H1.64437Z" fill="#DCE5E5"/>
<path d="M14.4889 16.1778H15.4222C15.6889 14.7112 15.7333 13.5112 16.3556 13.7334C16.4444 13.1556 16.5778 12.9334 16.6667 12.7112C16.6667 12.7112 16.6222 12.7112 16.4889 12.7112C16.0889 12.7112 15.7778 13.2445 15.7778 13.2445L15.8667 12.7556" fill="#DCE5E5"/>
<path d="M19.7333 13.6001C19.7333 13.6001 20.1333 13.4223 20.7111 13.4223C21.0222 13.4223 21.2888 13.4667 21.2888 13.7334C21.2888 13.9112 21.2444 13.9556 21.2444 13.9556C21.2444 13.9556 20.9777 13.9556 20.8444 13.9556C20.0888 13.9556 19.2444 14.2667 19.2444 15.289C19.2444 16.089 19.7777 16.2667 20.0888 16.2667C20.7111 16.2667 20.9777 15.8667 21.0222 15.8667L20.9777 16.2223H21.7777L22.1333 13.7778C22.1333 12.7556 21.2444 12.7112 20.8888 12.7112L19.7333 13.6001ZM21.5555 14.6223C21.5555 14.7556 21.0222 15.4667 20.4888 15.4667C20.2222 15.4667 20.1333 15.2445 20.1333 15.1112C20.1333 14.889 20.2666 14.5778 20.9333 14.5778C21.1111 14.6223 21.5555 14.6223 21.5555 14.6223Z" fill="#DCE5E5"/>
<path d="M21.9554 16.1778H22.8888C23.1554 14.7112 23.1999 13.5112 23.8221 13.7334C23.911 13.1556 24.0443 12.9334 24.1332 12.7112C24.1332 12.7112 24.0888 12.7112 23.9554 12.7112C23.5554 12.7112 23.2443 13.2445 23.2443 13.2445L23.3332 12.7556" fill="#DCE5E5"/>
</g>
<defs>
<clipPath id="clip0">
<rect width="28" height="28" fill="white"/>
</clipPath>
</defs>
</svg>
