<svg width="33" height="33" viewBox="0 0 33 33" fill="none" xmlns="http://www.w3.org/2000/svg">
<g clip-path="url(#clip0)">
<path d="M32.9999 16.5C32.9999 21.9476 28.5999 26.4 23.0999 26.4C17.6523 26.4 13.2 21.9476 13.2 16.5C13.2 11.0524 17.5999 6.59998 23.0476 6.59998C28.5999 6.59998 32.9999 11.0524 32.9999 16.5Z" fill="#FFB600"/>
<path d="M23.0999 6.59998C28.5476 6.59998 32.9999 11.0524 32.9999 16.5C32.9999 21.9476 28.5999 26.4 23.0999 26.4C17.6523 26.4 13.2 21.9476 13.2 16.5" fill="#F7981D"/>
<path d="M23.1 6.59998C28.5476 6.59998 33 11.0524 33 16.5C33 21.9476 28.6 26.4 23.1 26.4" fill="#FF8500"/>
<path d="M9.79524 6.59998C4.4 6.65236 0 11.0524 0 16.5C0 21.9476 4.4 26.4 9.9 26.4C12.4667 26.4 14.7714 25.4047 16.5524 23.8333C16.919 23.519 17.2333 23.1524 17.5476 22.7857H15.5048C15.2429 22.4714 14.981 22.1047 14.7714 21.7904H18.281C18.4905 21.4762 18.7 21.1095 18.8571 20.7428H14.1952C14.0381 20.4285 13.881 20.0619 13.7762 19.6952H19.2238C19.5381 18.7 19.7476 17.6524 19.7476 16.5524C19.7476 15.819 19.6429 15.1381 19.5381 14.4571H13.4619C13.5143 14.0905 13.619 13.7762 13.7238 13.4095H19.1714C19.0667 13.0428 18.9095 12.6762 18.7524 12.3619H14.1429C14.3 11.9952 14.5095 11.6809 14.719 11.3143H18.2286C18.019 10.9476 17.7571 10.5809 17.4429 10.2666H15.5048C15.819 9.89998 16.1333 9.58569 16.5 9.2714C14.7714 7.64759 12.4143 6.70474 9.84762 6.70474C9.84762 6.59998 9.84762 6.59998 9.79524 6.59998Z" fill="#FF5050"/>
<path d="M0 16.5C0 21.9476 4.4 26.4 9.9 26.4C12.4667 26.4 14.7714 25.4048 16.5524 23.8333C16.919 23.5191 17.2333 23.1524 17.5476 22.7857H15.5048C15.2429 22.4714 14.981 22.1048 14.7714 21.7905H18.281C18.4905 21.4762 18.7 21.1095 18.8571 20.7429H14.1952C14.0381 20.4286 13.881 20.0619 13.7762 19.6952H19.2238C19.5381 18.7 19.7476 17.6524 19.7476 16.5524C19.7476 15.8191 19.6429 15.1381 19.5381 14.4572H13.4619C13.5143 14.0905 13.619 13.7762 13.7238 13.4095H19.1714C19.0667 13.0429 18.9095 12.6762 18.7524 12.3619H14.1429C14.3 11.9952 14.5095 11.681 14.719 11.3143H18.2286C18.019 10.9476 17.7571 10.581 17.4429 10.2667H15.5048C15.819 9.90001 16.1333 9.58573 16.5 9.27144C14.7714 7.64763 12.4143 6.70477 9.84762 6.70477H9.79524" fill="#E52836"/>
<path d="M9.89993 26.4C12.4666 26.4 14.7714 25.4048 16.5523 23.8333C16.919 23.5191 17.2333 23.1524 17.5475 22.7857H15.5047C15.2428 22.4714 14.9809 22.1048 14.7714 21.7905H18.2809C18.4904 21.4762 18.6999 21.1095 18.8571 20.7429H14.1952C14.038 20.4286 13.8809 20.0619 13.7761 19.6952H19.2237C19.538 18.7 19.7475 17.6524 19.7475 16.5524C19.7475 15.8191 19.6428 15.1381 19.538 14.4572H13.4618C13.5142 14.0905 13.619 13.7762 13.7237 13.4095H19.1714C19.0666 13.0429 18.9094 12.6762 18.7523 12.3619H14.1428C14.2999 11.9952 14.5094 11.681 14.719 11.3143H18.2285C18.019 10.9476 17.7571 10.581 17.4428 10.2667H15.5047C15.819 9.90001 16.1333 9.58573 16.4999 9.27144C14.7714 7.64763 12.4142 6.70477 9.84755 6.70477H9.79517" fill="#CB2026"/>
<path d="M13.4095 19.0142L13.5667 18.1238C13.5143 18.1238 13.4095 18.1762 13.3048 18.1762C12.9381 18.1762 12.8857 17.9666 12.9381 17.8619L13.2524 16.0285H13.8286L13.9857 15.0333H13.4619L13.5667 14.4047H12.5191C12.5191 14.4047 11.8905 17.8619 11.8905 18.2809C11.8905 18.9095 12.2572 19.1714 12.7286 19.1714C13.0429 19.1714 13.3048 19.0666 13.4095 19.0142Z" fill="white"/>
<path d="M13.776 17.3381C13.776 18.8048 14.7712 19.1715 15.6093 19.1715C16.395 19.1715 16.7093 19.0143 16.7093 19.0143L16.9189 18.0191C16.9189 18.0191 16.3427 18.281 15.8189 18.281C14.6665 18.281 14.876 17.4429 14.876 17.4429H17.0236C17.0236 17.4429 17.1808 16.7619 17.1808 16.5C17.1808 15.8191 16.8141 14.981 15.6617 14.981C14.5617 14.8762 13.776 16.0286 13.776 17.3381ZM15.6093 15.8191C16.1855 15.8191 16.0808 16.5 16.0808 16.5524H14.9284C14.9284 16.5 15.0331 15.8191 15.6093 15.8191Z" fill="white"/>
<path d="M22.2618 19.0143L22.4713 17.8619C22.4713 17.8619 21.9475 18.1238 21.5809 18.1238C20.8475 18.1238 20.5332 17.5476 20.5332 16.9191C20.5332 15.6619 21.1618 14.981 21.8951 14.981C22.419 14.981 22.838 15.2953 22.838 15.2953L22.9951 14.1953C22.9951 14.1953 22.3666 13.9333 21.7904 13.9333C20.5856 13.9333 19.3809 14.981 19.3809 16.9714C19.3809 18.281 20.0094 19.1714 21.2666 19.1714C21.6856 19.1714 22.2618 19.0143 22.2618 19.0143Z" fill="white"/>
<path d="M7.64746 14.8762C6.91412 14.8762 6.39031 15.0857 6.39031 15.0857L6.23317 15.9762C6.23317 15.9762 6.7046 15.7667 7.38555 15.7667C7.75222 15.7667 8.0665 15.8191 8.0665 16.1334C8.0665 16.3429 8.01412 16.3953 8.01412 16.3953C8.01412 16.3953 7.69984 16.3953 7.54269 16.3953C6.65222 16.3953 5.65698 16.7619 5.65698 17.9667C5.65698 18.9096 6.28555 19.1191 6.65222 19.1191C7.38555 19.1191 7.69984 18.6476 7.75222 18.6476L7.69984 19.0667H8.64269L9.06174 16.1857C9.06174 14.9286 8.01412 14.8762 7.64746 14.8762ZM7.85698 17.2334C7.85698 17.3905 7.75222 18.2286 7.12365 18.2286C6.80936 18.2286 6.7046 17.9667 6.7046 17.8096C6.7046 17.5476 6.86174 17.181 7.64746 17.181C7.8046 17.2334 7.85698 17.2334 7.85698 17.2334Z" fill="white"/>
<path d="M10.0569 19.1191C10.3188 19.1191 11.6284 19.1715 11.6284 17.7572C11.6284 16.4477 10.3712 16.7096 10.3712 16.1858C10.3712 15.9239 10.5807 15.8191 10.9474 15.8191C11.1046 15.8191 11.6807 15.8715 11.6807 15.8715L11.8379 14.9286C11.8379 14.9286 11.4712 14.8239 10.8426 14.8239C10.0569 14.8239 9.27122 15.1381 9.27122 16.1858C9.27122 17.3905 10.5807 17.2858 10.5807 17.7572C10.5807 18.0715 10.2141 18.1239 9.95217 18.1239C9.48074 18.1239 9.00932 17.9667 9.00932 17.9667L8.85217 18.9096C8.90455 19.0143 9.16646 19.1191 10.0569 19.1191Z" fill="white"/>
<path d="M30.957 14.0381L30.7475 15.4524C30.7475 15.4524 30.3285 14.9286 29.7523 14.9286C28.8094 14.9286 27.9713 16.0809 27.9713 17.4428C27.9713 18.2809 28.3904 19.1714 29.2808 19.1714C29.9094 19.1714 30.2761 18.7524 30.2761 18.7524L30.2237 19.119H31.2713L32.057 14.0905L30.957 14.0381ZM30.4856 16.8143C30.4856 17.3905 30.2237 18.1238 29.6475 18.1238C29.2808 18.1238 29.0713 17.8095 29.0713 17.2857C29.0713 16.4476 29.438 15.9238 29.9094 15.9238C30.2761 15.9238 30.4856 16.1857 30.4856 16.8143Z" fill="white"/>
<path d="M1.93799 19.0667L2.56656 15.2952L2.67132 19.0667H3.40465L4.76656 15.2952L4.19037 19.0667H5.29037L6.12846 14.0381H4.39989L3.35227 17.1286L3.29989 14.0381H1.78084L0.942749 19.0667H1.93799Z" fill="white"/>
<path d="M18.1761 19.0667C18.4903 17.3381 18.5427 15.9238 19.2761 16.1857C19.3808 15.5048 19.538 15.2429 19.6427 14.981C19.6427 14.981 19.5903 14.981 19.4332 14.981C18.9618 14.981 18.5951 15.6095 18.5951 15.6095L18.6999 15.0333H17.7046L17.0237 19.1191H18.1761V19.0667Z" fill="white"/>
<path d="M24.6713 14.8762C23.9379 14.8762 23.4141 15.0857 23.4141 15.0857L23.257 15.9762C23.257 15.9762 23.7284 15.7667 24.4094 15.7667C24.776 15.7667 25.0903 15.8191 25.0903 16.1334C25.0903 16.3429 25.0379 16.3953 25.0379 16.3953C25.0379 16.3953 24.7236 16.3953 24.5665 16.3953C23.676 16.3953 22.6808 16.7619 22.6808 17.9667C22.6808 18.9096 23.3094 19.1191 23.676 19.1191C24.4094 19.1191 24.7236 18.6476 24.776 18.6476L24.7236 19.0667H25.6665L26.0855 16.1857C26.1379 14.9286 25.0379 14.8762 24.6713 14.8762ZM24.9332 17.2334C24.9332 17.3905 24.8284 18.2286 24.1998 18.2286C23.8855 18.2286 23.7808 17.9667 23.7808 17.8096C23.7808 17.5476 23.9379 17.181 24.7236 17.181C24.8808 17.2334 24.8808 17.2334 24.9332 17.2334Z" fill="white"/>
<path d="M26.9761 19.0667C27.2904 17.3381 27.3428 15.9238 28.0761 16.1857C28.1809 15.5048 28.338 15.2429 28.4428 14.981C28.4428 14.981 28.3904 14.981 28.2333 14.981C27.7618 14.981 27.3952 15.6095 27.3952 15.6095L27.4999 15.0333H26.5047L25.8237 19.1191H26.9761V19.0667Z" fill="white"/>
<path d="M11.7855 18.2809C11.7855 18.9095 12.1522 19.1714 12.6236 19.1714C12.9903 19.1714 13.3046 19.0666 13.4093 19.0142L13.5665 18.1238C13.5141 18.1238 13.4093 18.1762 13.3046 18.1762C12.9379 18.1762 12.8855 17.9666 12.9379 17.8619L13.2522 16.0285H13.8284L13.9855 15.0333H13.4617L13.5665 14.4047" fill="#DCE5E5"/>
<path d="M14.2999 17.3381C14.2999 18.8048 14.7714 19.1715 15.6095 19.1715C16.3952 19.1715 16.7095 19.0143 16.7095 19.0143L16.919 18.0191C16.919 18.0191 16.3428 18.281 15.819 18.281C14.6666 18.281 14.8761 17.4429 14.8761 17.4429H17.0237C17.0237 17.4429 17.1809 16.7619 17.1809 16.5C17.1809 15.8191 16.8142 14.981 15.6618 14.981C14.5618 14.8762 14.2999 16.0286 14.2999 17.3381ZM15.6095 15.8191C16.1856 15.8191 16.2904 16.5 16.2904 16.5524H14.9285C14.9285 16.5 15.0333 15.8191 15.6095 15.8191Z" fill="#DCE5E5"/>
<path d="M22.2618 19.0143L22.4713 17.8619C22.4713 17.8619 21.9475 18.1238 21.5809 18.1238C20.8475 18.1238 20.5332 17.5476 20.5332 16.9191C20.5332 15.6619 21.1618 14.981 21.8951 14.981C22.4189 14.981 22.838 15.2953 22.838 15.2953L22.9951 14.1953C22.9951 14.1953 22.3666 13.9333 21.7904 13.9333C20.5856 13.9333 19.9047 14.981 19.9047 16.9714C19.9047 18.281 20.0094 19.1714 21.2666 19.1714C21.6856 19.1714 22.2618 19.0143 22.2618 19.0143Z" fill="#DCE5E5"/>
<path d="M6.23317 16.0286C6.23317 16.0286 6.7046 15.8191 7.38555 15.8191C7.75222 15.8191 8.0665 15.8714 8.0665 16.1857C8.0665 16.3952 8.01412 16.4476 8.01412 16.4476C8.01412 16.4476 7.69984 16.4476 7.54269 16.4476C6.65222 16.4476 5.65698 16.8143 5.65698 18.0191C5.65698 18.9619 6.28555 19.1714 6.65222 19.1714C7.38555 19.1714 7.69984 18.7 7.75222 18.7L7.69984 19.1191H8.64269L9.06174 16.2381C9.06174 15.0333 8.01412 14.981 7.59508 14.981L6.23317 16.0286ZM8.38079 17.2333C8.38079 17.3905 7.75222 18.2286 7.12365 18.2286C6.80936 18.2286 6.7046 17.9667 6.7046 17.8095C6.7046 17.5476 6.86174 17.181 7.64746 17.181C7.8046 17.2333 8.38079 17.2333 8.38079 17.2333Z" fill="#DCE5E5"/>
<path d="M8.90454 19.0143C8.90454 19.0143 9.21883 19.1191 10.1093 19.1191C10.3712 19.1191 11.6807 19.1715 11.6807 17.7572C11.6807 16.4477 10.4236 16.7096 10.4236 16.1858C10.4236 15.9239 10.6331 15.8191 10.9998 15.8191C11.1569 15.8191 11.7331 15.8715 11.7331 15.8715L11.8903 14.9286C11.8903 14.9286 11.5236 14.8239 10.895 14.8239C10.1093 14.8239 9.8474 15.1381 9.8474 16.1858C9.8474 17.3905 10.6331 17.2858 10.6331 17.7572C10.6331 18.0715 10.2664 18.1239 10.0045 18.1239" fill="#DCE5E5"/>
<path d="M30.7475 15.4524C30.7475 15.4524 30.3285 14.9285 29.7523 14.9285C28.8094 14.9285 28.4951 16.0809 28.4951 17.4428C28.4951 18.2809 28.3904 19.1714 29.2808 19.1714C29.9094 19.1714 30.2761 18.7524 30.2761 18.7524L30.2237 19.119H31.2713L32.057 14.0905L30.7475 15.4524ZM30.6951 16.8143C30.6951 17.3905 30.2237 18.1238 29.6475 18.1238C29.2808 18.1238 29.0713 17.8095 29.0713 17.2857C29.0713 16.4476 29.438 15.9238 29.9094 15.9238C30.2761 15.9238 30.6951 16.1857 30.6951 16.8143Z" fill="#DCE5E5"/>
<path d="M1.93799 19.0667L2.56656 15.2952L2.67132 19.0667H3.40465L4.76656 15.2952L4.19037 19.0667H5.29037L6.12846 14.0381H4.81894L3.35227 17.1286L3.29989 14.0381H2.7237L0.942749 19.0667H1.93799Z" fill="#DCE5E5"/>
<path d="M17.0762 19.0667H18.1762C18.4905 17.3381 18.5428 15.9238 19.2762 16.1857C19.3809 15.5048 19.5381 15.2429 19.6428 14.981C19.6428 14.981 19.5905 14.981 19.4333 14.981C18.9619 14.981 18.5952 15.6095 18.5952 15.6095L18.7 15.0333" fill="#DCE5E5"/>
<path d="M23.257 16.0286C23.257 16.0286 23.7284 15.8191 24.4094 15.8191C24.776 15.8191 25.0903 15.8714 25.0903 16.1857C25.0903 16.3952 25.0379 16.4476 25.0379 16.4476C25.0379 16.4476 24.7236 16.4476 24.5665 16.4476C23.676 16.4476 22.6808 16.8143 22.6808 18.0191C22.6808 18.9619 23.3094 19.1714 23.676 19.1714C24.4094 19.1714 24.7236 18.7 24.776 18.7L24.7236 19.1191H25.6665L26.0856 16.2381C26.0856 15.0333 25.0379 14.981 24.6189 14.981L23.257 16.0286ZM25.4046 17.2333C25.4046 17.3905 24.776 18.2286 24.1475 18.2286C23.8332 18.2286 23.7284 17.9667 23.7284 17.8095C23.7284 17.5476 23.8855 17.181 24.6713 17.181C24.8808 17.2333 25.4046 17.2333 25.4046 17.2333Z" fill="#DCE5E5"/>
<path d="M25.876 19.0667H26.976C27.2903 17.3381 27.3426 15.9238 28.076 16.1857C28.1807 15.5048 28.3379 15.2429 28.4426 14.981C28.4426 14.981 28.3903 14.981 28.2331 14.981C27.7617 14.981 27.395 15.6095 27.395 15.6095L27.4998 15.0333" fill="#DCE5E5"/>
</g>
<defs>
<clipPath id="clip0">
<rect width="33" height="33" fill="white"/>
</clipPath>
</defs>
</svg>
