<svg width="24" height="24" viewBox="0 0 24 24" fill="none" xmlns="http://www.w3.org/2000/svg">
<g clip-path="url(#clip0)">
<path d="M14.1988 12.0204L23.5439 2.67503C24.1521 2.06715 24.1521 1.0843 23.5439 0.476417C22.936 -0.131462 21.9532 -0.131462 21.3453 0.476417L11.9999 9.82182L2.65474 0.476417C2.04658 -0.131462 1.064 -0.131462 0.456124 0.476417C-0.152041 1.0843 -0.152041 2.06715 0.456124 2.67503L9.80126 12.0204L0.456124 21.3658C-0.152041 21.9737 -0.152041 22.9566 0.456124 23.5644C0.759068 23.8677 1.15739 24.02 1.55543 24.02C1.95347 24.02 2.35152 23.8677 2.65474 23.5644L11.9999 14.2191L21.3453 23.5644C21.6485 23.8677 22.0466 24.02 22.4446 24.02C22.8426 24.02 23.2407 23.8677 23.5439 23.5644C24.1521 22.9566 24.1521 21.9737 23.5439 21.3658L14.1988 12.0204Z" fill="#FF0000"/>
</g>
<defs>
<clipPath id="clip0">
<rect width="24" height="24" fill="white"/>
</clipPath>
</defs>
</svg>
