<svg width="13" height="13" viewBox="0 0 13 13" fill="none" xmlns="http://www.w3.org/2000/svg">
<path d="M12.8862 12.337L9.72696 9.17783C10.5744 8.20355 11.0875 6.93237 11.0875 5.54302C11.0875 2.4847 8.59991 0 5.54448 0C2.48617 0 0.00146484 2.48758 0.00146484 5.54302C0.00146484 8.59845 2.48905 11.086 5.54448 11.086C6.93384 11.086 8.20501 10.5729 9.17929 9.7255L12.3385 12.8847C12.4134 12.9596 12.5143 13 12.6123 13C12.7103 13 12.8112 12.9625 12.8862 12.8847C13.0361 12.7348 13.0361 12.4869 12.8862 12.337ZM0.776853 5.54302C0.776853 2.91419 2.91565 0.778271 5.5416 0.778271C8.17042 0.778271 10.3063 2.91707 10.3063 5.54302C10.3063 8.16896 8.17042 10.3106 5.5416 10.3106C2.91565 10.3106 0.776853 8.17184 0.776853 5.54302Z" fill="white"/>
</svg>
