<svg width="14" height="14" viewBox="0 0 14 14" fill="none" xmlns="http://www.w3.org/2000/svg">
<path d="M9.52018 6.00409C10.2913 6.41732 11.7767 6.29081 12.9059 5.16131C14.026 4.04147 14.4495 2.40389 13.3905 1.30997L13.3913 1.30954C13.3863 1.30492 13.3683 1.28693 13.3637 1.2821C13.3637 1.2821 13.3637 1.28253 13.3629 1.28253C12.2696 0.224053 10.6322 0.647302 9.51178 1.76718C8.38249 2.89668 8.25599 4.38202 8.669 5.15313C8.56261 5.78457 7.69636 6.46967 6.91937 6.91429C6.32015 6.54466 5.56451 5.8914 5.48512 4.57803C5.54252 4.0534 5.36972 3.50823 4.96825 3.10672C4.93141 3.06987 4.82541 2.98021 4.82541 2.98021L1.89834 0.700514L1.6317 0.966937L4.80782 3.94658L4.46331 4.29109L1.38626 1.21382L1.10372 1.49614L4.18034 4.5736L3.88944 4.8645L0.812822 1.78791L0.555413 2.04301L3.61361 5.10143L3.26322 5.45308L0.29173 2.30731L0 2.5999L2.42902 5.66059C2.42902 5.66059 2.48685 5.71986 2.51133 5.74164C2.86485 6.05057 3.30865 6.19632 3.74783 6.18399C3.75096 6.18399 3.75558 6.18482 3.75724 6.18525C4.91374 6.19679 5.62836 6.89987 6.07781 7.50641C4.97809 8.60675 1.56511 12.0201 1.56511 12.0201L1.56594 12.021C1.56259 12.0235 1.55819 12.0264 1.55484 12.0298C1.27692 12.3075 1.27692 12.7582 1.55484 13.0368C1.56908 13.0506 1.62269 13.1038 1.63632 13.118C1.91424 13.3962 2.36561 13.3962 2.6431 13.1184C2.64645 13.1151 2.64937 13.1109 2.65211 13.1072L2.65294 13.1084C2.65294 13.1084 5.82235 9.93879 7.03751 8.72406C8.19401 9.88013 11.3997 13.085 11.3997 13.085L11.4005 13.0841C11.403 13.0871 11.4042 13.0912 11.4085 13.0954C11.6815 13.3681 12.1273 13.3681 12.4007 13.0946C12.6743 12.8207 12.6751 12.3767 12.4011 12.1023C12.397 12.0985 12.3928 12.0973 12.3895 12.0935L12.3903 12.0927C12.3903 12.0927 8.84954 8.55238 7.86728 7.56928C8.31086 6.84623 8.93834 6.10208 9.52018 6.00409ZM9.14401 3.88919C9.16074 3.70132 9.19845 3.48519 9.26086 3.25648C9.29395 3.14277 9.33289 3.02568 9.38026 2.90735C9.43261 2.78716 9.48751 2.67529 9.56791 2.55823C9.72163 2.33352 9.90885 2.15881 10.0953 2.01222C10.2796 1.86373 10.4668 1.74832 10.6331 1.66079C10.7981 1.57156 10.946 1.51377 11.0515 1.48068C11.1588 1.44549 11.2212 1.44087 11.2212 1.44087C11.2212 1.44087 11.1697 1.47985 11.0926 1.55188C11.0147 1.62434 10.9037 1.72824 10.7701 1.85262C10.5137 2.10271 10.1485 2.42732 9.8896 2.78041C9.82719 2.86106 9.77149 2.96745 9.7229 3.06483C9.67012 3.16433 9.62318 3.26715 9.58049 3.36892C9.49166 3.57125 9.41837 3.76726 9.35513 3.93631C9.29356 4.10575 9.24539 4.24898 9.21691 4.3508C9.18591 4.45279 9.19009 4.51332 9.19513 4.51332C9.19265 4.5171 9.1545 4.45845 9.14322 4.34596C9.12934 4.23474 9.12642 4.07662 9.14401 3.88919Z" fill="#C4C4C4"/>
</svg>
