<svg width="11" height="11" viewBox="0 0 11 11" fill="none" xmlns="http://www.w3.org/2000/svg">
<g clip-path="url(#clip0)">
<path d="M10.9712 4.21919C10.8988 3.99645 10.7013 3.83876 10.4684 3.81769L7.29307 3.52941L6.03814 0.591376C5.94549 0.375521 5.73467 0.236206 5.50001 0.236206C5.26536 0.236206 5.05446 0.375521 4.96239 0.591376L3.70747 3.52941L0.531586 3.81769C0.298779 3.83918 0.10164 3.99687 0.0287928 4.21919C-0.0436342 4.44193 0.0232538 4.68623 0.199328 4.84065L2.59966 6.9454L1.89192 10.0625C1.84014 10.2917 1.9291 10.5287 2.11927 10.6662C2.22149 10.7405 2.34159 10.7776 2.46211 10.7776C2.56567 10.7776 2.66932 10.75 2.76189 10.6947L5.50001 9.05745L8.23764 10.6947C8.43847 10.8147 8.691 10.8037 8.88075 10.6662C9.07093 10.5287 9.15989 10.2917 9.10811 10.0625L8.40037 6.9454L10.8007 4.84065C10.9767 4.68623 11.0437 4.44243 10.9712 4.21919Z" fill="#444444"/>
</g>
<defs>
<clipPath id="clip0">
<rect width="11" height="11" fill="white"/>
</clipPath>
</defs>
</svg>
