<svg width="14" height="14" viewBox="0 0 14 14" fill="none" xmlns="http://www.w3.org/2000/svg">
<path d="M13.9976 4.63431C14.1134 2.53892 9.43587 0.805298 7 0.805298C4.56434 0.805298 -0.113369 2.53892 0.00238951 4.63431H0V9.17953H0.00228331C0.00392942 9.21102 0.00653134 9.24235 0.0102484 9.27357C0.271183 11.4099 4.52877 13.1947 7 13.1947C9.47134 13.1947 13.7289 11.41 13.9898 9.27357C13.9936 9.24235 13.9961 9.21102 13.9977 9.17953H14V4.63431H13.9976ZM12.7457 4.7078C12.5242 6.46499 9.01792 7.94638 6.98641 7.95467C4.95479 7.96279 1.46047 6.50992 1.25311 4.75447C1.04581 2.99892 4.98091 1.51589 7.01253 1.50755C9.04404 1.49932 12.9673 2.95076 12.7457 4.7078Z" fill="#C4C4C4"/>
<path d="M7.00626 3.0945C5.98376 3.09869 4.00338 3.84513 4.10773 4.72856C4.21207 5.61199 5.97059 6.34323 6.99309 6.33909C8.01548 6.33495 9.78006 5.58942 9.89162 4.70509C10.0031 3.82086 8.02865 3.09036 7.00626 3.0945Z" fill="#C4C4C4"/>
</svg>
