<svg width="15" height="15" viewBox="0 0 15 15" fill="none" xmlns="http://www.w3.org/2000/svg">
<path d="M3.10547 15H11.8945C12.6215 15 13.2129 14.4086 13.2129 13.6816V4.39453H10.1367C9.40975 4.39453 8.81836 3.80314 8.81836 3.07617V0H3.10547C2.3785 0 1.78711 0.591387 1.78711 1.31836V13.6816C1.78711 14.4086 2.3785 15 3.10547 15ZM4.86328 6.18164H10.1367C10.3796 6.18164 10.5762 6.37819 10.5762 6.62109C10.5762 6.86399 10.3796 7.06055 10.1367 7.06055H4.86328C4.62038 7.06055 4.42383 6.86399 4.42383 6.62109C4.42383 6.37819 4.62038 6.18164 4.86328 6.18164ZM4.86328 7.93945H10.1367C10.3796 7.93945 10.5762 8.13601 10.5762 8.37891C10.5762 8.62181 10.3796 8.81836 10.1367 8.81836H4.86328C4.62038 8.81836 4.42383 8.62181 4.42383 8.37891C4.42383 8.13601 4.62038 7.93945 4.86328 7.93945ZM4.86328 9.69727H10.1367C10.3796 9.69727 10.5762 9.89382 10.5762 10.1367C10.5762 10.3796 10.3796 10.5762 10.1367 10.5762H4.86328C4.62038 10.5762 4.42383 10.3796 4.42383 10.1367C4.42383 9.89382 4.62038 9.69727 4.86328 9.69727ZM4.86328 11.4551H8.37891C8.62181 11.4551 8.81836 11.6516 8.81836 11.8945C8.81836 12.1374 8.62181 12.334 8.37891 12.334H4.86328C4.62038 12.334 4.42383 12.1374 4.42383 11.8945C4.42383 11.6516 4.62038 11.4551 4.86328 11.4551Z" fill="#666666"/>
<path d="M10.1367 3.51558H12.9554L9.69727 0.257446V3.07613C9.69727 3.31859 9.89426 3.51558 10.1367 3.51558Z" fill="#666666"/>
</svg>
