<svg width="34" height="34" viewBox="0 0 34 34" fill="none" xmlns="http://www.w3.org/2000/svg">
<g clip-path="url(#clip0)">
<path d="M12.4667 21.8841L14.1937 12.1699H16.8921L15.2191 21.8841H12.4667Z" fill="#9A9A9A"/>
<path d="M12.4667 21.8841L14.6794 12.1699H16.8921L15.2191 21.8841H12.4667Z" fill="white"/>
<path d="M24.9874 12.2778C24.4477 12.0619 23.5842 11.846 22.5048 11.846C19.8064 11.846 17.8636 13.1952 17.8636 15.1381C17.8636 16.5952 19.2128 17.3508 20.2921 17.8365C21.3715 18.3222 21.6953 18.646 21.6953 19.0778C21.6953 19.7254 20.8318 20.0492 20.0763 20.0492C18.9969 20.0492 18.4032 19.8873 17.4858 19.5095L17.108 19.3476L16.7302 21.5603C17.3778 21.8301 18.5651 22.1 19.8064 22.1C22.6667 22.1 24.5556 20.7508 24.5556 18.7C24.5556 17.5666 23.854 16.7032 22.235 16.0016C21.2636 15.5158 20.6699 15.246 20.6699 14.7603C20.6699 14.3285 21.1556 13.8968 22.235 13.8968C23.1524 13.8968 23.8001 14.0587 24.2858 14.2746L24.5556 14.3825L24.9874 12.2778Z" fill="#9A9A9A"/>
<path d="M24.9874 12.2778C24.4477 12.0619 23.5842 11.846 22.5048 11.846C19.8064 11.846 18.3493 13.1952 18.3493 15.1381C18.3493 16.5952 19.2128 17.3508 20.2921 17.8365C21.3715 18.3222 21.6953 18.646 21.6953 19.0778C21.6953 19.7254 20.8318 20.0492 20.0763 20.0492C18.9969 20.0492 18.4032 19.8873 17.4858 19.5095L17.108 19.3476L16.7302 21.5603C17.3778 21.8301 18.5651 22.1 19.8064 22.1C22.6667 22.1 24.5556 20.7508 24.5556 18.7C24.5556 17.5666 23.854 16.7032 22.235 16.0016C21.2636 15.5158 20.6699 15.246 20.6699 14.7603C20.6699 14.3285 21.1556 13.8968 22.235 13.8968C23.1524 13.8968 23.8001 14.0587 24.2858 14.2746L24.5556 14.3825L24.9874 12.2778Z" fill="white"/>
<path d="M29.6287 12.1699C28.981 12.1699 28.4953 12.2238 28.2255 12.8714L24.1779 21.8841H27.0921L27.6318 20.2651H31.0858L31.4096 21.8841H34.0001L31.7334 12.1699H29.6287ZM28.3874 18.6461C28.5493 18.1603 29.4667 15.7857 29.4667 15.7857C29.4667 15.7857 29.6826 15.1921 29.8445 14.8143L30.0064 15.7318C30.0064 15.7318 30.5461 18.1603 30.654 18.7H28.3874V18.6461Z" fill="#9A9A9A"/>
<path d="M30.2763 12.1699C29.6287 12.1699 29.1429 12.2238 28.8731 12.8714L24.1779 21.8841H27.0921L27.6318 20.2651H31.0858L31.4096 21.8841H34.0001L31.7334 12.1699H30.2763ZM28.3874 18.6461C28.6033 18.1064 29.4667 15.7857 29.4667 15.7857C29.4667 15.7857 29.6826 15.1921 29.8445 14.8143L30.0064 15.7318C30.0064 15.7318 30.5461 18.1603 30.654 18.7H28.3874V18.6461Z" fill="white"/>
<path d="M7.50166 18.9698L7.23182 17.5667C6.7461 15.9476 5.18102 14.1667 3.45404 13.3032L5.88261 21.9381H8.7969L13.1683 12.2238H10.254L7.50166 18.9698Z" fill="#9A9A9A"/>
<path d="M7.50166 18.9698L7.23182 17.5667C6.7461 15.9476 5.18102 14.1667 3.45404 13.3032L5.88261 21.9381H8.7969L13.1683 12.2238H10.7937L7.50166 18.9698Z" fill="white"/>
<path d="M0 12.1699L0.485714 12.2778C3.93968 13.0873 6.31429 15.1381 7.23175 17.5667L6.26032 12.9794C6.09841 12.3318 5.6127 12.1699 5.01905 12.1699H0Z" fill="#FFBC00"/>
<path d="M0 12.1699C3.45397 12.9794 6.31429 15.0841 7.23175 17.5127L6.31429 13.681C6.15238 13.0334 5.6127 12.6556 5.01905 12.6556L0 12.1699Z" fill="#F7981D"/>
<path d="M0 12.1699C3.45397 12.9794 6.31429 15.0841 7.23175 17.5127L6.58413 15.408C6.42222 14.7603 6.20635 14.1127 5.45079 13.8429L0 12.1699Z" fill="#ED7C00"/>
<path d="M10.2 18.646L8.36508 16.8111L7.50159 18.8619L7.28571 17.5127C6.8 15.8937 5.23492 14.1127 3.50793 13.2492L5.93651 21.8841H8.85079L10.2 18.646Z" fill="#F2F2F2"/>
<path d="M15.2191 21.8841L12.8984 19.5095L12.4667 21.8841H15.2191Z" fill="#F2F2F2"/>
<path d="M21.4255 18.538C21.6413 18.7539 21.7493 18.9158 21.6953 19.1317C21.6953 19.7793 20.8318 20.1031 20.0763 20.1031C18.9969 20.1031 18.4032 19.9412 17.4858 19.5634L17.108 19.4015L16.7302 21.6142C17.3778 21.8841 18.5651 22.1539 19.8064 22.1539C21.5334 22.1539 22.9366 21.6682 23.7461 20.8047L21.4255 18.538Z" fill="#F2F2F2"/>
<path d="M24.5555 21.8841H27.0921L27.6317 20.2651H31.0857L31.4095 21.8841H34L33.0825 17.9444L29.8444 14.8143L30.0063 15.6778C30.0063 15.6778 30.546 18.1063 30.654 18.646H28.3873C28.6032 18.1063 29.4667 15.7857 29.4667 15.7857C29.4667 15.7857 29.6825 15.192 29.8444 14.8143" fill="#F2F2F2"/>
</g>
<defs>
<clipPath id="clip0">
<rect width="34" height="34" fill="white"/>
</clipPath>
</defs>
</svg>
