<svg width="29" height="28" viewBox="0 0 29 28" fill="none" xmlns="http://www.w3.org/2000/svg">
<g clip-path="url(#clip0)">
<path d="M10.6333 18.0222L12.1063 10.0222H14.4079L12.9809 18.0222H10.6333Z" fill="#9A9A9A"/>
<path d="M10.6333 18.0222L12.5206 10.0222H14.4079L12.9809 18.0222H10.6333Z" fill="white"/>
<path d="M21.3128 10.111C20.8524 9.93327 20.1159 9.75549 19.1953 9.75549C16.8937 9.75549 15.2366 10.8666 15.2366 12.4666C15.2366 13.6666 16.3874 14.2888 17.308 14.6888C18.2286 15.0888 18.5048 15.3555 18.5048 15.711C18.5048 16.2444 17.7683 16.5111 17.1239 16.5111C16.2032 16.5111 15.6969 16.3777 14.9143 16.0666L14.5921 15.9333L14.2699 17.7555C14.8223 17.9777 15.835 18.1999 16.8937 18.1999C19.3334 18.1999 20.9445 17.0888 20.9445 15.3999C20.9445 14.4666 20.3461 13.7555 18.9651 13.1777C18.1366 12.7777 17.6302 12.5555 17.6302 12.1555C17.6302 11.7999 18.0445 11.4444 18.9651 11.4444C19.7477 11.4444 20.3001 11.5777 20.7143 11.7555L20.9445 11.8444L21.3128 10.111Z" fill="#9A9A9A"/>
<path d="M21.3128 10.111C20.8524 9.93327 20.1159 9.75549 19.1953 9.75549C16.8937 9.75549 15.6509 10.8666 15.6509 12.4666C15.6509 13.6666 16.3874 14.2888 17.308 14.6888C18.2286 15.0888 18.5048 15.3555 18.5048 15.711C18.5048 16.2444 17.7683 16.5111 17.1239 16.5111C16.2032 16.5111 15.6969 16.3777 14.9143 16.0666L14.5921 15.9333L14.2699 17.7555C14.8223 17.9777 15.835 18.1999 16.8937 18.1999C19.3334 18.1999 20.9445 17.0888 20.9445 15.3999C20.9445 14.4666 20.3461 13.7555 18.9651 13.1777C18.1366 12.7777 17.6302 12.5555 17.6302 12.1555C17.6302 11.7999 18.0445 11.4444 18.9651 11.4444C19.7477 11.4444 20.3001 11.5777 20.7143 11.7555L20.9445 11.8444L21.3128 10.111Z" fill="white"/>
<path d="M25.2715 10.0222C24.7191 10.0222 24.3049 10.0667 24.0747 10.6L20.6223 18.0222H23.108L23.5683 16.6889H26.5144L26.7906 18.0222H29.0001L27.0668 10.0222H25.2715ZM24.2128 15.3555C24.3509 14.9555 25.1334 13 25.1334 13C25.1334 13 25.3176 12.5111 25.4556 12.2L25.5937 12.9555C25.5937 12.9555 26.0541 14.9556 26.1461 15.4H24.2128V15.3555Z" fill="#9A9A9A"/>
<path d="M25.8239 10.0222C25.2715 10.0222 24.8572 10.0667 24.6271 10.6L20.6223 18.0222H23.108L23.5683 16.6889H26.5144L26.7906 18.0222H29.0001L27.0668 10.0222H25.8239ZM24.2128 15.3555C24.3969 14.9111 25.1334 13 25.1334 13C25.1334 13 25.3176 12.5111 25.4556 12.2L25.5937 12.9555C25.5937 12.9555 26.0541 14.9556 26.1461 15.4H24.2128V15.3555Z" fill="white"/>
<path d="M6.39843 15.6222L6.16827 14.4666C5.75398 13.1333 4.41906 11.6667 2.94604 10.9555L5.01747 18.0666H7.50319L11.2318 10.0667H8.74605L6.39843 15.6222Z" fill="#9A9A9A"/>
<path d="M6.39843 15.6222L6.16827 14.4666C5.75398 13.1333 4.41906 11.6667 2.94604 10.9555L5.01747 18.0666H7.50319L11.2318 10.0667H9.20636L6.39843 15.6222Z" fill="white"/>
<path d="M0 10.0222L0.414286 10.1111C3.36032 10.7778 5.38571 12.4667 6.16825 14.4667L5.33968 10.6889C5.20159 10.1556 4.7873 10.0222 4.28095 10.0222H0Z" fill="#FFBC00"/>
<path d="M0 10.0222C2.94603 10.6889 5.38571 12.4222 6.16825 14.4222L5.38571 11.2667C5.24762 10.7333 4.7873 10.4222 4.28095 10.4222L0 10.0222Z" fill="#F7981D"/>
<path d="M0 10.0222C2.94603 10.6889 5.38571 12.4222 6.16825 14.4222L5.61587 12.6889C5.47778 12.1556 5.29365 11.6222 4.64921 11.4L0 10.0222Z" fill="#ED7C00"/>
<path d="M8.7 15.3556L7.13492 13.8445L6.39841 15.5334L6.21429 14.4222C5.8 13.0889 4.46508 11.6222 2.99207 10.9111L5.06349 18.0222H7.54921L8.7 15.3556Z" fill="#F2F2F2"/>
<path d="M12.9809 18.0222L11.0016 16.0667L10.6333 18.0222H12.9809Z" fill="#F2F2F2"/>
<path d="M18.2747 15.2666C18.4588 15.4444 18.5508 15.5777 18.5048 15.7555C18.5048 16.2888 17.7683 16.5555 17.1239 16.5555C16.2032 16.5555 15.6969 16.4222 14.9143 16.111L14.5921 15.9777L14.2699 17.7999C14.8223 18.0222 15.835 18.2444 16.8937 18.2444C18.3667 18.2444 19.5635 17.8444 20.254 17.1333L18.2747 15.2666Z" fill="#F2F2F2"/>
<path d="M20.9445 18.0222H23.108L23.5683 16.6888H26.5143L26.7905 18.0222H29L28.2175 14.7777L25.4556 12.2L25.5937 12.9111C25.5937 12.9111 26.054 14.9111 26.146 15.3555H24.2127C24.3968 14.9111 25.1333 13 25.1333 13C25.1333 13 25.3175 12.5111 25.4556 12.2" fill="#F2F2F2"/>
</g>
<defs>
<clipPath id="clip0">
<rect width="29" height="28" fill="white"/>
</clipPath>
</defs>
</svg>
