<svg width="64" height="64" viewBox="0 0 64 64" fill="none" xmlns="http://www.w3.org/2000/svg">
<g clip-path="url(#clip0)">
<path d="M23.4668 41.1937L26.7176 22.908H31.797L28.6478 41.1937H23.4668Z" fill="#9A9A9A"/>
<path d="M23.4668 41.1937L27.6319 22.908H31.797L28.6478 41.1937H23.4668Z" fill="white"/>
<path d="M47.035 23.111C46.0192 22.7047 44.3938 22.2983 42.362 22.2983C37.2827 22.2983 33.6255 24.838 33.6255 28.4952C33.6255 31.238 36.1652 32.6602 38.1969 33.5745C40.2287 34.4888 40.8382 35.0983 40.8382 35.911C40.8382 37.1301 39.2128 37.7396 37.7906 37.7396C35.7589 37.7396 34.6414 37.4348 32.9144 36.7237L32.2033 36.419L31.4922 40.5841C32.7112 41.092 34.9462 41.5999 37.2827 41.5999C42.6668 41.5999 46.2223 39.0602 46.2223 35.1999C46.2223 33.0666 44.9017 31.4412 41.8541 30.1206C40.0255 29.2063 38.9081 28.6983 38.9081 27.7841C38.9081 26.9714 39.8223 26.1587 41.8541 26.1587C43.5811 26.1587 44.8001 26.4634 45.7144 26.8698L46.2223 27.0729L47.035 23.111Z" fill="#9A9A9A"/>
<path d="M47.035 23.111C46.0192 22.7047 44.3938 22.2983 42.362 22.2983C37.2827 22.2983 34.5398 24.838 34.5398 28.4952C34.5398 31.238 36.1652 32.6602 38.1969 33.5745C40.2287 34.4888 40.8382 35.0983 40.8382 35.911C40.8382 37.1301 39.2128 37.7396 37.7906 37.7396C35.7589 37.7396 34.6414 37.4348 32.9144 36.7237L32.2033 36.419L31.4922 40.5841C32.7112 41.092 34.9462 41.5999 37.2827 41.5999C42.6668 41.5999 46.2223 39.0602 46.2223 35.1999C46.2223 33.0666 44.9017 31.4412 41.8541 30.1206C40.0255 29.2063 38.9081 28.6983 38.9081 27.7841C38.9081 26.9714 39.8223 26.1587 41.8541 26.1587C43.5811 26.1587 44.8001 26.4634 45.7144 26.8698L46.2223 27.0729L47.035 23.111Z" fill="white"/>
<path d="M55.7717 22.908C54.5526 22.908 53.6383 23.0095 53.1304 24.2286L45.5114 41.1937H50.9971L52.0129 38.1461H58.5145L59.1241 41.1937H64.0003L59.7336 22.908H55.7717ZM53.4352 35.0984C53.7399 34.1841 55.4669 29.7143 55.4669 29.7143C55.4669 29.7143 55.8733 28.5968 56.178 27.8857L56.4828 29.6127C56.4828 29.6127 57.4987 34.1842 57.7018 35.2H53.4352V35.0984Z" fill="#9A9A9A"/>
<path d="M56.9907 22.908C55.7717 22.908 54.8574 23.0095 54.3495 24.2286L45.5114 41.1937H50.9971L52.0129 38.1461H58.5145L59.1241 41.1937H64.0003L59.7336 22.908H56.9907ZM53.4352 35.0984C53.8415 34.0826 55.4669 29.7143 55.4669 29.7143C55.4669 29.7143 55.8733 28.5968 56.178 27.8857L56.4828 29.6127C56.4828 29.6127 57.4987 34.1842 57.7018 35.2H53.4352V35.0984Z" fill="white"/>
<path d="M14.1209 35.7079L13.6129 33.0667C12.6987 30.019 9.75262 26.6667 6.50183 25.0413L11.0733 41.2952H16.559L24.7875 23.0095H19.3018L14.1209 35.7079Z" fill="#9A9A9A"/>
<path d="M14.1209 35.7079L13.6129 33.0667C12.6987 30.019 9.75262 26.6667 6.50183 25.0413L11.0733 41.2952H16.559L24.7875 23.0095H20.3177L14.1209 35.7079Z" fill="white"/>
<path d="M0 22.908L0.914286 23.1111C7.41587 24.6349 11.8857 28.4953 13.6127 33.0667L11.7841 24.4318C11.4794 23.2127 10.5651 22.908 9.44762 22.908H0Z" fill="#FFBC00"/>
<path d="M0 22.908C6.50159 24.4318 11.8857 28.3937 13.6127 32.9651L11.8857 25.7524C11.581 24.5334 10.5651 23.8222 9.44762 23.8222L0 22.908Z" fill="#F7981D"/>
<path d="M0 22.908C6.50159 24.4318 11.8857 28.3937 13.6127 32.9651L12.3937 29.0032C12.0889 27.7842 11.6825 26.5651 10.2603 26.0572L0 22.908Z" fill="#ED7C00"/>
<path d="M19.2001 35.0984L15.7461 31.6445L14.1207 35.5048L13.7144 32.9651C12.8001 29.9175 9.85406 26.5651 6.60327 24.9397L11.1747 41.1937H16.6604L19.2001 35.0984Z" fill="#F2F2F2"/>
<path d="M28.6478 41.1936L24.2795 36.7238L23.4668 41.1936H28.6478Z" fill="#F2F2F2"/>
<path d="M40.3303 34.8951C40.7366 35.3015 40.9398 35.6063 40.8382 36.0126C40.8382 37.2317 39.2128 37.8412 37.7906 37.8412C35.7589 37.8412 34.6414 37.5364 32.9144 36.8253L32.2033 36.5205L31.4922 40.6856C32.7112 41.1936 34.9462 41.7015 37.2827 41.7015C40.5335 41.7015 43.1747 40.7872 44.6985 39.1618L40.3303 34.8951Z" fill="#F2F2F2"/>
<path d="M46.2223 41.1937H50.9969L52.0128 38.1461H58.5144L59.1239 41.1937H64.0001L62.2731 33.7778L56.1778 27.8857L56.4826 29.5111C56.4826 29.5111 57.4985 34.0826 57.7017 35.0984H53.435C53.8413 34.0826 55.4667 29.7143 55.4667 29.7143C55.4667 29.7143 55.8731 28.5969 56.1778 27.8857" fill="#F2F2F2"/>
</g>
<defs>
<clipPath id="clip0">
<rect width="64" height="64" fill="white"/>
</clipPath>
</defs>
</svg>
