<svg width="15" height="15" viewBox="0 0 15 15" fill="none" xmlns="http://www.w3.org/2000/svg">
<g clip-path="url(#clip0)">
<path d="M8.46825 0.00275068C8.23101 -0.0236852 8.00247 0.143284 7.96745 0.380635L7.64221 2.66831H8.40679C8.45074 2.66831 8.49457 2.66831 8.53863 2.67701L8.84613 0.503659C8.87257 0.266308 8.7056 0.0378841 8.46825 0.00275068Z" fill="#C4C4C4"/>
<path d="M11.1837 0.907898C10.9464 0.828819 10.7004 0.951843 10.6301 1.18027L9.93591 3.30097C10.2171 3.56465 10.428 3.90728 10.5246 4.29398L11.456 1.46145C11.5352 1.23291 11.4121 0.978165 11.1837 0.907898Z" fill="#C4C4C4"/>
<path d="M9.10367 13.2426H5.95254L4.19507 15H10.8611L9.10367 13.2426Z" fill="#C4C4C4"/>
<path d="M5.07375 7.94068H9.98236L11.7398 6.18323H3.31628L5.07375 7.94068Z" fill="#C4C4C4"/>
<path d="M0.103223 8.62375C0.235631 8.82277 0.507086 8.88182 0.712507 8.74563L2.77725 7.3887L3.55305 14.3994L5.45987 12.4924C5.54226 12.41 5.65384 12.3637 5.77057 12.3637H9.28551C9.40224 12.3637 9.51382 12.41 9.59622 12.4924L11.503 14.3994L12.2788 7.3887L14.3436 8.74563C14.5491 8.88193 14.8205 8.82265 14.9529 8.62375C15.0876 8.42165 15.0331 8.14917 14.831 8.01447L12.6114 6.5542L10.4749 8.6907C10.3925 8.7731 10.2809 8.81945 10.1643 8.81945H4.89178C4.77505 8.81945 4.66358 8.7731 4.58119 8.6907L2.44469 6.5542L0.225103 8.01447C0.0229999 8.14917 -0.0314741 8.42165 0.103223 8.62375Z" fill="#C4C4C4"/>
<path d="M4.48752 4.46094C3.94267 4.56634 3.46819 4.87396 3.14307 5.30449H7.26443L7.6422 2.66833H6.64931C5.57723 2.66833 4.68092 3.44161 4.48752 4.46094Z" fill="#C4C4C4"/>
<path d="M8.16077 5.30445H9.26798L9.93575 3.30093C9.57549 2.93186 9.08339 2.70344 8.53865 2.677L8.16077 5.30445Z" fill="#C4C4C4"/>
<path d="M10.5685 4.46091C10.5597 4.39935 10.5421 4.3467 10.5245 4.29395L10.1819 5.30446H11.9129C11.5878 4.87393 11.1133 4.56632 10.5685 4.46091Z" fill="#C4C4C4"/>
</g>
<defs>
<clipPath id="clip0">
<rect width="15" height="15" fill="white"/>
</clipPath>
</defs>
</svg>
